<?xml version="1.0" encoding="utf-8"?>
<!-- Generator: Adobe Illustrator 19.0.0, SVG Export Plug-In . SVG Version: 6.00 Build 0)  -->
<svg version="1.1" id="Layer_1" xmlns="http://www.w3.org/2000/svg" xmlns:xlink="http://www.w3.org/1999/xlink" x="0px" y="0px"
	 viewBox="0 0 1080 540" style="enable-background:new 0 0 1080 540;" xml:space="preserve">
<style type="text/css">
	.st0{display:none;}
	.st1{display:inline;fill:#FFFFFF;}
	.st2{display:inline;}
	.st3{display:inline;clip-path:url(#SVGID_2_);}
	.st4{fill:#FFFFFF;}
	.st5{fill:#0A0A0A;}
	.st6{fill:#770606;}
	.st7{fill:#212121;}
	.st8{fill:none;}
	.st9{display:none;fill:none;stroke:#000000;stroke-miterlimit:10;}
</style>
<g class="st0">
	<path class="st1" d="M325.2,47.6c0,0,78.3,18.3,78.1,97.4c0,0-1.5,14.7,4.6,15.4c6.2,0.7,9.8,0.2,9.2-14.4c0.8-9.6-6.9-42-31-68.9
		c-13.9-15.5-33.3-29.1-59.6-35.6L326,40c-0.4-1.1-1.3-2-2.4-2.3c-6.5-2.1-24.8-7.6-34.9,1.4c8.7,11.5,25.3,11.2,32.4,11.5
		c1.3,0.1,2.6-0.2,3.2-1.3L325.2,47.6z"/>
	<path class="st1" d="M386.9,80.7c0,0-0.9-33.6,16.3-44.6c3.3,3.9,6.3,29.9-9.2,51.8L386.9,80.7z"/>
	<path class="st1" d="M386.8,88.5c0,0-29.8-2.6-45.9,21c0,0,26.6,10.7,49.1-17.1"/>
	<path class="st1" d="M366.5,60.1c0,0-10.8-16.2,6.3-46.6c0,0,14.6,17.6-1.9,50.3L366.5,60.1z"/>
	<path class="st1" d="M365.4,64.8c0,0-28.9,5.9-38.6,26.2c0,0,22.7,5.5,42.5-22L365.4,64.8z"/>
	<path class="st1" d="M339.2,46.3c0,0-8.2-20.1,3.3-42c0,0,11.4,18.3,3.3,45.9L339.2,46.3z"/>
	<path class="st1" d="M335.8,50.7c0,0-19.5,5.5-27.2,24.9c0,0,16.4,0.3,36.7-22.7L335.8,50.7z"/>
</g>
<g class="st0">
	<defs>
		<path id="SVGID_1_" d="M421.1,287.6c-29.8-6.3-42.9-12.9-42.9-12.9s-2.2-1-7.1-3.1c-9.9-4.2-30.8-13.1-65.6-28.3
			c-29.4-10-42.1-9.3-50.7-7.7c-10.6,2-20.7,6.2-29.7,12.1c-10.8,7-20.8,14.7-20.8,14.7s53.2,16.3,88.3,74.2
			c7.8,10.3,13.6,20.9,22,30.2c31.4,34.7,79.6,73.9,132.4,82.7c71.2,12.9,174.8,1.5,229.5-16.1c50.1-13.2,61.9-17.5,61.9-17.5
			s37.5-15.2,137.4,8.8c0,0-60.4-37.9-79-83.6c0,0-54.4,39.3-117.9,0c0,0,100.7-66.6,138.6-166.2c0,0-154.1-25.1-257.6,14.5
			c0,0,46.6-42.7,24.8-104.5c0,0-176.6,69.5-208.5,173.6l-4.7,19.4"/>
	</defs>
	<use xlink:href="#SVGID_1_"  style="display:inline;overflow:visible;fill:#0C0C0C;"/>
	<clipPath id="SVGID_2_" class="st2">
		<use xlink:href="#SVGID_1_"  style="overflow:visible;"/>
	</clipPath>
	<g class="st3">
		<g>
			<path class="st4" d="M297.1,293.4c-6.1,16.1-12.5,32.1-18.3,48.2c-2.2,6-5.3,8.6-19.9,10.1c-25.3,2.7-49.9,0.5-74.7,0.7
				c-17.7,0.2-19.3-1.4-16-10.4c6.8-18.1,13.6-36.2,20.5-54.3c1.4-3.5,1.6-7.6,10.1-8.9l-0.2,0c2.7,0.6,5.4,1.2,8.1,1.8
				c7.9,3.5,16.5,4.4,27,4.7c15.2,0.4,30.3,3,45.4,4.7l-0.2,0C284.9,291.1,291,292.2,297.1,293.4z M242.5,310.4
				c-7.5-2.7-15.7-3.5-24.3-3.6C225.5,309.6,233.9,310.3,242.5,310.4z"/>
			<path class="st4" d="M274.7,167.5c15.1,4.6,31.6,6.5,47.9,8.9c16.8,2.4,17.6,3,14.5,11.6c-3.1,8.4-6.6,16.8-9.6,25.2
				c-1.8,5.1-7.9,6.9-16.3,4.7c-23.6-6.4-49.8-7.1-74.6-10.7c-11.1-1.6-15.9-4.3-13.3-10.5c5.5-13.1,10.3-26.3,15-39.5
				c1.8-5,7.1-7.4,16.6-6.8c27.1,1.9,54.3,0.8,81.4,1.3c9.7,0.2,14,2.1,12,7.4c-8.1,20.5-3.9,17.3-37.7,12.4
				C298.7,169.8,287.5,166.5,274.7,167.5z"/>
			<path class="st4" d="M198.8,278.8c-7.9-6-4.9-11.8,3-16.3c3.6-2,1.9-2.5,0.8-4.2c-2.8-4.7-0.8-9.4,4.6-13.1
				c5.6-3.8,13.2-1,19.8-0.1c23.7,3.4,47.7,6,70.4,11.4c8.6,2.1,11.9,4.4,10,9.1c-3.5,8.6-6.7,17.2-10.1,25.8
				c-6.2-0.5-12.4-1-18.6-1.5l0.2,0c-10.6-3.3-20.3-8.2-33.2-8.2c-13.4,0.1-26.2-1.6-39.2-2.7c-2.7-0.1-5.3-0.2-8-0.3L198.8,278.8z
				 M279.5,272.1c4.6,2,9.9,3.1,17.9,3C291,272.3,285.6,271.7,279.5,272.1z"/>
			<path class="st4" d="M306.7,244.1c7,1.6,8.3,4.2,4.8,7.3c-3.7,3.2-10.5,3.2-15.4,1.6c-22.5-7.3-48.7-7.3-72.9-11.3
				c-10.2-1.7-15.8-4-13.2-9.9c2.6-5.9,4.4-11.8,6.7-17.7c1.7-4.3,6.2-6.6,15.2-5.3c27.2,3.9,54.5,7.9,81.7,11.9
				c6.7,1,10.2,3.6,7.9,6.9c-3.6,5.3,2.1,13.4-15,15c-21.6-1.7-40.3-9.9-63.1-8.9C263.5,239.2,285.2,241.5,306.7,244.1z"/>
		</g>
		<g>
			<path class="st4" d="M313.6,255.8c4.8-16.8,9.8-33.7,14.4-50.6c1.7-6.3,4.1-9,15.5-10.7c19.7-2.9,38.7-0.7,57.9-1.1
				c13.7-0.3,15,1.3,12.3,10.8c-5.3,19-10.7,38-16.2,56.9c-1.1,3.7-1.3,7.9-7.9,9.4l0.1,0.1c-2.1-0.6-4.2-1.2-6.2-1.8
				c-6.1-3.6-12.8-4.5-20.9-4.8c-11.8-0.4-23.5-3-35.2-4.7l0.2,0C323,258.1,318.3,256.9,313.6,255.8z M355.9,237.7
				c5.8,2.8,12.2,3.6,18.9,3.7C369.1,238.4,362.6,237.7,355.9,237.7z"/>
			<path class="st4" d="M330.4,387.4c-11.7-4.7-24.5-6.7-37.1-9.1c-13-2.4-13.7-3-11.2-12c2.4-8.8,5.2-17.6,7.6-26.4
				c1.4-5.3,6.1-7.3,12.7-5c18.3,6.5,38.6,7.2,57.8,10.8c8.6,1.6,12.3,4.4,10.2,10.9c-4.3,13.7-8.1,27.5-11.8,41.4
				c-1.4,5.2-5.5,7.8-12.9,7.2c-21-1.8-42.1-0.5-63.1-1c-7.5-0.2-10.9-2.2-9.2-7.7c6.4-21.5,3.1-18.1,29.3-13.2
				C311.7,385,320.4,388.5,330.4,387.4z"/>
			<path class="st4" d="M389.7,270.5c6.1,6.2,3.8,12.3-2.4,17.1c-2.8,2.1-1.5,2.6-0.7,4.4c2.1,4.9,0.5,9.8-3.7,13.7
				c-4.3,4-10.2,1.1-15.3,0.2c-18.4-3.4-37-6.1-54.5-11.6c-6.7-2.1-9.2-4.6-7.7-9.5c2.7-9,5.3-18,7.9-27c4.8,0.5,9.6,1,14.4,1.5
				l-0.2,0c8.2,3.4,15.7,8.5,25.7,8.4c10.4-0.1,20.3,1.5,30.4,2.7c2.1,0.1,4.1,0.2,6.2,0.3L389.7,270.5z M327.1,278
				c-3.6-2.1-7.6-3.2-13.9-3.1C318.1,277.7,322.3,278.4,327.1,278z"/>
			<path class="st4" d="M305.8,307.3c-5.4-1.6-6.4-4.4-3.7-7.7c2.9-3.4,8.2-3.4,11.9-1.8c17.4,7.6,37.8,7.4,56.5,11.5
				c7.9,1.7,12.2,4.1,10.2,10.3c-2,6.1-3.5,12.4-5.3,18.5c-1.3,4.5-4.8,6.9-11.8,5.6c-21.1-4-42.2-8-63.3-12.1
				c-5.2-1-7.9-3.7-6.1-7.2c2.8-5.6-1.6-14.1,11.7-15.8c16.7,1.7,31.2,10.2,48.9,9C339.3,312.2,322.5,310,305.8,307.3z"/>
		</g>
		<g>
			<path class="st4" d="M469.1,371.9c-7.3,27.5-14.7,54.9-21.8,82.4c-2.6,10.3-5.6,14.6-18.4,16.7c-22.1,3.6-42.9-1.2-64.2-1.7
				c-15.2-0.4-16.4-3.1-12.4-18.6c8.1-31,16.2-61.9,24.4-92.8c1.6-6.1,2.3-13,9.8-14.9l-0.1-0.1c2.2,1.1,4.5,2.3,6.7,3.4
				c6.3,6.3,13.6,8.2,22.6,9.1c13,1.3,25.6,6.4,38.4,9.9l-0.2-0.1C459,367.4,464.1,369.6,469.1,371.9z M420.2,399.1
				c-6.1-5-13.1-6.7-20.4-7.2C405.7,397.1,412.8,398.6,420.2,399.1z"/>
			<path class="st4" d="M465.5,153.9c12.4,8.5,26.3,12.5,40,17.2c14.1,4.8,14.8,5.8,11,20.5c-3.7,14.4-7.7,28.7-11.4,43
				c-2.2,8.7-7.6,11.7-14.6,7.4c-19.5-11.9-41.8-14.3-62.7-21.4c-9.3-3.2-13.1-8-10.1-18.6c6.4-22.4,12.1-44.9,17.8-67.5
				c2.2-8.6,7-12.5,15.1-11c23.1,4.3,46.5,3.5,69.7,5.5c8.3,0.7,11.8,4.2,9.3,13.3c-9.5,35.1-5.5,29.7-33.9,20
				C485.9,158.9,476.7,152.7,465.5,153.9z"/>
			<path class="st4" d="M386.6,342.9c-6.1-10.6-2.7-20.5,4.6-28c3.3-3.4,1.9-4.2,1.3-7.2c-1.8-8.2,0.5-16.2,5.6-22.4
				c5.2-6.4,11.5-1.2,17,0.6c19.9,6.7,40.2,12.3,59,22.5c7.1,3.9,9.7,8.1,7.5,16c-4.1,14.7-7.9,29.4-11.8,44.1
				c-5.3-1.1-10.5-2.2-15.8-3.4l0.2,0.1c-8.7-6.1-16.4-15-27.5-15.4c-11.5-0.4-22.3-3.7-33.3-6.3c-2.3-0.3-4.5-0.5-6.8-0.8
				L386.6,342.9z M456.7,334.5c3.7,3.6,8.1,5.8,15,6C466.5,335.4,462,334,456.7,334.5z"/>
			<path class="st4" d="M483.5,287.4c5.8,3,6.6,7.6,3.2,12.8c-3.6,5.5-9.4,5.1-13.4,2.2c-18.4-13.5-40.9-14.5-61.1-22.3
				c-8.6-3.3-13.1-7.5-10.1-17.7c2.9-10,5.2-20.2,7.9-30.3c2-7.3,6.1-11.1,13.7-8.5c22.9,7.9,45.8,15.8,68.6,23.8
				c5.6,2,8.3,6.6,5.9,12.3c-3.8,9.1,0.1,23.3-14.8,25.3c-18.3-3.9-33.4-18.7-53.1-17.9C447,277.2,465.4,281.9,483.5,287.4z"/>
		</g>
		<g>
			<path class="st4" d="M522.4,190.5c7.8-30,15.8-60,23.3-90.1c2.8-11.3,6-15.9,19.4-18.3c23.3-4,45.2,1.2,67.7,1.7
				c16,0.4,17.3,3.4,13,20.3c-8.6,33.9-17.3,67.7-26.1,101.5c-1.7,6.6-2.5,14.2-10.4,16.3l0.2,0.1c-2.3-1.2-4.7-2.5-7-3.7
				c-6.7-6.8-14.3-9-23.8-9.9c-13.7-1.4-27-7-40.5-10.7l0.2,0.1C533,195.4,527.7,193,522.4,190.5z M574.1,160.7
				c6.4,5.4,13.7,7.3,21.5,7.8C589.4,162.9,581.9,161.2,574.1,160.7z"/>
			<path class="st4" d="M494.4,438.7c15.9-1.5,30.8,2.1,45.8,4.9c15.5,2.9,16.6,2.3,21.1-13.7c4.4-15.6,8.5-31.3,13-46.8
				c2.7-9.4,0.3-25.4-8.4-25c-24.2,1-46.6-14.7-69.5-19c-10.2-1.9-16.6,16.9-19.6,28.7c-6.3,24.6-13.3,49-20.4,73.4
				c-2.7,9.3-0.4,15.6,7.8,18.4c23.4,8.1,44.3,21.3,66.5,31.7c8,3.7,13.1,2.2,15.7-7.7c10.4-38.3,11.1-31.1-20.1-36.9
				C515.6,444.8,503.9,445.8,494.4,438.7z"/>
			<path class="st4" d="M609.3,222.1c6.3,11.6,2.8,22.4-5,30.6c-3.5,3.7-2,4.6-1.4,7.9c1.9,9-0.6,17.7-6,24.5
				c-5.6,7-12.1,1.4-17.9-0.7c-21-7.3-42.4-13.3-62.1-24.5c-7.5-4.2-10.2-8.9-7.8-17.5c4.3-16,8.5-32.1,12.7-48.2
				c5.5,1.2,11.1,2.4,16.7,3.6c0,0-0.2-0.1-0.2-0.1c9.2,6.6,17.2,16.3,28.9,16.8c12.2,0.4,23.5,4,35.1,6.8c2.4,0.3,4.8,0.6,7.2,0.9
				L609.3,222.1z M535.4,231.4c-3.9-3.9-8.5-6.3-15.8-6.5C524.9,230.4,529.7,231.9,535.4,231.4z"/>
			<path class="st4" d="M506.8,282.9c-6.1-3.2-6.9-8.3-3.3-14c3.8-6,10-5.6,14.1-2.4c19.4,14.7,43.1,15.7,64.4,24.3
				c9,3.6,13.7,8.2,10.6,19.3c-3.1,10.9-5.6,22.1-8.5,33.1c-2.1,8-6.5,12.2-14.5,9.4c-24.1-8.6-48.2-17.2-72.3-25.9
				c-5.9-2.1-8.7-7.2-6.2-13.4c4-9.9,0-25.4,15.7-27.6c19.3,4.2,35.1,20.4,55.9,19.4C545.3,294,525.9,288.9,506.8,282.9z"/>
		</g>
		<g>
			<path class="st4" d="M694.2,359.7c-8.2,31.2-16.6,62.4-24.5,93.7c-3,11.7-6.3,16.6-20.7,18.9c-24.8,4.2-48.2-1.3-72.2-1.8
				c-17.1-0.4-18.5-3.5-13.9-21.1c9.1-35.2,18.2-70.3,27.5-105.5c1.8-6.9,2.6-14.8,11.1-17l-0.2-0.1c2.5,1.3,5,2.6,7.5,3.9
				c7.1,7.1,15.3,9.3,25.4,10.4c14.6,1.5,28.8,7.3,43.2,11.2l-0.2-0.1C682.8,354.7,688.5,357.2,694.2,359.7z M639.1,390.7
				c-6.8-5.7-14.7-7.6-23-8.1C622.8,388.4,630.8,390.2,639.1,390.7z"/>
			<path class="st4" d="M690.3,112.3c13.9,9.6,29.6,14.2,45,19.5c15.9,5.4,16.6,6.6,12.3,23.3c-4.2,16.3-8.7,32.5-12.8,48.9
				c-2.5,9.9-8.6,13.3-16.4,8.4c-21.9-13.5-47.1-16.2-70.6-24.2c-10.5-3.6-14.8-9-11.3-21.1c7.2-25.4,13.7-51,20.1-76.6
				c2.4-9.7,7.9-14.2,17-12.5c25.9,4.8,52.3,3.9,78.4,6.1c9.4,0.8,13.3,4.8,10.5,15.1c-10.7,39.8-6.2,33.7-38.1,22.7
				C713.2,117.9,702.9,110.9,690.3,112.3z"/>
			<path class="st4" d="M601.4,326.9c-6.8-12.1-3.1-23.3,5.2-31.8c3.7-3.8,2.2-4.7,1.4-8.2c-2-9.4,0.6-18.4,6.3-25.5
				c5.9-7.2,12.9-1.4,19.1,0.7c22.4,7.6,45.2,13.9,66.4,25.5c8,4.4,10.9,9.2,8.4,18.2c-4.6,16.6-8.9,33.4-13.3,50.1
				c-5.9-1.3-11.8-2.5-17.8-3.8c0,0,0.2,0.1,0.2,0.1c-9.8-6.9-18.4-17-30.9-17.4c-13-0.5-25.1-4.2-37.5-7.1
				c-2.6-0.3-5.1-0.6-7.7-0.9L601.4,326.9z M680.2,317.3c4.2,4.1,9.1,6.6,16.9,6.8C691.3,318.3,686.2,316.8,680.2,317.3z"/>
			<path class="st4" d="M710.5,263.7c6.5,3.4,7.4,8.6,3.6,14.6c-4,6.2-10.6,5.8-15.1,2.5c-20.7-15.3-46-16.4-68.8-25.3
				c-9.6-3.8-14.7-8.5-11.3-20.1c3.3-11.4,5.9-22.9,8.9-34.4c2.2-8.3,6.9-12.6,15.4-9.7c25.8,8.9,51.5,17.9,77.2,27
				c6.3,2.2,9.3,7.5,6.7,13.9c-4.2,10.3,0.1,26.4-16.6,28.7c-20.6-4.4-37.5-21.2-59.7-20.2C669.4,252.2,690.1,257.6,710.5,263.7z"/>
		</g>
		<g>
			<path class="st4" d="M730.7,236.2c6.4-28.7,12.9-57.3,19-86.1c2.3-10.8,5.1-15.3,17.3-17.9c21.2-4.5,41.4-0.2,62-0.4
				c14.7-0.1,15.9,2.7,12.4,18.9c-7,32.3-14.1,64.6-21.3,96.9c-1.4,6.3-1.9,13.5-9.1,15.8l0.1,0.1c-2.2-1.1-4.4-2.2-6.5-3.3
				c-6.3-6.3-13.4-8.1-22-8.7c-12.6-1-24.9-5.8-37.3-9l0.2,0.1C740.6,240.5,735.7,238.4,730.7,236.2z M777.3,206.4
				c6,5,12.8,6.5,19.9,6.8C791.4,208,784.5,206.7,777.3,206.4z"/>
			<path class="st4" d="M739.4,461.7c-12.2-8.4-25.7-12.1-39.1-16.5c-13.7-4.5-14.4-5.5-11.1-20.9c3.2-15,6.8-29.9,10-44.9
				c1.9-9.1,7.1-12.3,13.9-8.2c19.1,11.7,40.8,13.4,61.1,20.1c9.1,3,12.9,7.8,10.2,18.9c-5.6,23.4-10.6,46.9-15.6,70.4
				c-1.9,8.9-6.5,13.2-14.3,11.9c-22.4-3.7-45-2-67.4-3.3c-8-0.5-11.5-4-9.3-13.4c8.3-36.6,4.6-30.9,32.2-21.8
				C719.6,457.3,728.6,463.4,739.4,461.7z"/>
			<path class="st4" d="M811.1,263.5c6.1,10.8,3.1,21.1-3.8,29.1c-3.1,3.6-1.7,4.4-1,7.5c1.9,8.5-0.1,16.8-4.9,23.4
				c-4.9,6.8-11,1.7-16.4-0.1c-19.4-6.3-39.1-11.4-57.5-21.3c-7-3.8-9.5-8.1-7.6-16.4c3.6-15.3,6.9-30.7,10.4-46
				c5.1,1,10.2,2,15.3,2.9c0,0-0.2-0.1-0.2-0.1c8.6,6,16.2,15,26.9,15c11.2,0,21.6,3.1,32.4,5.4c2.2,0.2,4.4,0.4,6.6,0.6
				L811.1,263.5z M743.7,274.5c-3.7-3.6-7.9-5.7-14.6-5.7C734.1,273.9,738.5,275.1,743.7,274.5z"/>
			<path class="st4" d="M718.8,324.2c-5.7-2.9-6.6-7.6-3.4-13.2c3.3-5.8,9-5.6,12.9-2.7c18.1,13.4,39.9,13.6,59.6,21.1
				c8.4,3.2,12.8,7.3,10.2,18c-2.6,10.4-4.6,21.1-6.9,31.6c-1.7,7.7-5.7,11.7-13,9.3c-22.3-7.4-44.6-14.8-66.9-22.4
				c-5.5-1.9-8.2-6.5-6-12.5c3.4-9.5-0.7-24.1,13.7-26.7c17.8,3.4,32.7,18.3,51.7,16.8C754.3,333.5,736.5,329.2,718.8,324.2z"/>
		</g>
		<g>
			<path class="st4" d="M858.7,412.6c-4,28.9-8.1,57.8-11.9,86.8c-1.4,10.8-3.3,15.5-12.1,18.5c-15.2,5.3-29.8,1.9-44.6,2.8
				c-10.6,0.7-11.5-2.1-9.3-18.4c4.4-32.6,8.8-65.2,13.3-97.7c0.9-6.4,1.1-13.6,6.2-16.1l-0.1-0.1c1.6,1,3.2,2,4.8,3.1
				c4.6,6,9.8,7.5,16,7.8c9.1,0.5,18,4.8,27,7.5l-0.1-0.1C851.5,408.8,855.1,410.7,858.7,412.6z M825.8,444.3c-4.4-4.7-9.3-6-14.5-6
				C815.7,443.2,820.7,444.3,825.8,444.3z"/>
			<path class="st4" d="M847.9,187.7c8.9,7.9,18.7,11.1,28.4,14.9c10,4,10.5,4.9,8.4,20.4c-2,15.1-4.3,30.2-6.2,45.3
				c-1.2,9.1-4.8,12.6-9.8,8.7c-14-10.9-29.6-11.8-44.3-17.6c-6.6-2.6-9.4-7.3-7.7-18.5c3.6-23.6,6.7-47.3,9.8-71
				c1.2-9,4.4-13.4,10-12.5c16.2,2.8,32.4,0.2,48.5,0.6c5.8,0.1,8.3,3.5,7,13.1c-5.2,36.9-2.7,31.1-22.7,23.1
				C862.2,191.3,855.6,185.6,847.9,187.7z"/>
			<path class="st4" d="M800.4,388.6c-4.6-10.6-2.7-21,2.1-29.3c2.2-3.7,1.2-4.4,0.6-7.5c-1.6-8.4-0.3-16.8,3-23.6
				c3.4-7,7.9-2.1,11.8-0.6c14.1,5.5,28.4,9.8,41.8,19c5.1,3.5,7,7.7,5.8,16.1c-2.3,15.4-4.4,30.9-6.5,46.4
				c-3.7-0.8-7.4-1.6-11.1-2.3l0.1,0.1c-6.3-5.6-11.9-14.3-19.7-13.9c-8,0.4-15.6-2.2-23.4-4.1c-1.6-0.1-3.2-0.2-4.8-0.4
				L800.4,388.6z M848.6,374.9c2.7,3.5,5.8,5.4,10.6,5.1C855.5,375.1,852.3,374.1,848.6,374.9z"/>
			<path class="st4" d="M865.5,324.3c4.1,2.6,4.9,7.4,2.7,13.1c-2.3,5.9-6.3,5.9-9.2,3.2c-13.3-12.6-28.9-12-43.3-18.7
				c-6.1-2.8-9.3-6.8-7.7-17.6c1.7-10.5,2.9-21.2,4.3-31.8c1.1-7.7,3.8-11.9,9.2-9.8c16.2,6.5,32.4,13.1,48.5,19.7
				c4,1.6,6,6.2,4.6,12.3c-2.3,9.6,1,24-9.3,27.2c-12.8-2.7-23.9-17-37.5-14.7C839.8,316.4,852.7,319.9,865.5,324.3z"/>
		</g>
	</g>
</g>
<g>
	<rect class="st5" width="1080" height="540"/>
	<g>
		<g>
			<path class="st4" d="M624.1,104.8c0,0-42,20.2-31.9,64.9c0,0,2.7,8.1-0.7,9.3c-3.4,1.2-5.5,1.3-7-7c-1.7-5.3-1.4-24.6,8.9-42.8
				c5.9-10.5,15.1-20.6,29.2-27.6l0.1-1c0.1-0.7,0.5-1.3,1.1-1.6c3.4-2,13-7.4,19.9-3.6c-3.5,7.6-12.9,9.5-16.9,10.6
				c-0.7,0.2-1.5,0.2-2-0.4L624.1,104.8z"/>
			<path class="st4" d="M593.4,131.2c0,0-3.7-19.1-14.8-23.1c-1.4,2.6,0.2,17.7,11.7,28.1L593.4,131.2z"/>
			<path class="st4" d="M594.5,135.6c0,0,16.5-5.2,28.6,6.1c0,0-13.7,9.4-29.9-3.5"/>
			<path class="st4" d="M602.4,117c0,0,4.1-10.5-9.4-25.6c0,0-6,11.8,7.4,28.2L602.4,117z"/>
			<path class="st4" d="M603.6,119.6c0,0,17.1-0.3,25.1,9.9c0,0-12.2,5.9-26.8-7.1L603.6,119.6z"/>
			<path class="st4" d="M616.1,105.8c0,0,2.1-12.4-7.1-23.3c0,0-4.1,11.8,3.9,26.3L616.1,105.8z"/>
			<path class="st4" d="M618.5,107.8c0,0,11.7,0.6,18.5,10.7c0,0-9.2,2.2-23.6-8.2L618.5,107.8z"/>
		</g>
		<path class="st4" d="M399.3,217.9c25.5-11.6,36-20.1,36-20.1s1.8-1.4,5.7-4.2c8.1-5.7,25-17.9,53.3-38.5
			c24.4-14.8,35.9-16.8,44-17c9.9-0.3,19.8,1.5,29.1,5c11.1,4.1,21.6,9,21.6,9s-44.5,25.2-64.5,84.2c-5,10.8-8,21.5-13.7,31.5
			c-21.3,37.4-56.7,82.2-102.3,100.6c-61.3,25.8-156.6,36.2-209.2,31.3c-47.6-1.8-59-3.3-59-3.3s-36.7-6.2-121.5,35.3
			c0,0,46.6-46.1,54.2-90.8c0,0,56.6,24.4,105.8-23.5c0,0-103.7-39.7-157.5-121.6c0,0,133.3-53.2,234.1-38.3
			c0,0-50.4-29.1-43.1-88.9c0,0,172.3,27.2,221.7,114.2l8.1,16.5"/>
	</g>
	<g>
		<path class="st6" d="M177.3,143.1c13.2,0.3,25.9,9.7,29.5,22c1,3.4,1.8,6.8-3.5,7.2c-1,0.1-2.1,0.3-2.1,1.5c0,1.2,1,1.8,2,1.8
			c5.3,0,4.6,3.7,4.4,6.9c-0.5,8.4-3.1,12.2-10.1,14.2c5.1,1.5,3.7,4.1,1.7,6.7c-5,6.7-11.3,11.9-18.7,15.8c-1.3,0.7-3.4,1-3.3,2.9
			c0.1,1.8,2.1,2.2,3.5,2.7c12.1,4.9,17.9,14.7,19.9,26.7c1.8,10.8-1.3,12.9-11.4,9c-0.4-0.2-0.9-0.8-1.3,0c0,0,0.5,0.4,0.8,0.6
			c1,2.1,3,3.2,5,3.8c5.3,1.5,5.5,4.8,3.5,9.1c-1.6,3.4-3.2,6.7-5.1,9.9c-3,5.1-6.9,8.3-13.4,9.1c-11.4,1.6-22,6-30.7,13.8
			c-4.6,4-9.7,5.6-15.6,5.6c-29.2,0-58.4,0.1-87.6,0c-7,0-8-1.3-6.7-8.1c5.9-30.6,11.6-61.3,17.4-91.9c4.1-21.1,8.2-42.3,11.6-63.6
			c1.5-9.2,1.9-9.4,11.4-9.4c22.7,0,45.5,0.1,68.2-0.1c5.1-0.1,9.9,2.1,15.1,1.4c1.7-0.3,3,1.5,3.4,4.2c-4.6-0.6-9.1-1.1-13.5-1.7
			c-0.1,0.4-0.2,0.8-0.2,1.2c6.2,2.1,12.4,4.2,18.7,6.2c1.2,0.4,3.1,0.8,3.8-0.6c1-1.9-1.3-2.5-2.1-3.7
			C174.3,146.1,176.2,145.1,177.3,143.1z M167.7,179.7c0.5,0.5,1.1,1.5,1.7,0.7c0.6-0.8-0.6-1-1.1-1.4c-1.2-0.6-2.2-2-3.9-0.9
			C165,179.7,166.5,179.3,167.7,179.7z M123.2,157.1c-0.3,0.5-0.6,1-1,1.4c-1.2,1.3-3.7,2.5-0.8,4.4c1.7,1.1,3.7,3,5.6,0.8
			c1.8-2.1-0.5-3.4-1.7-4.7C124.7,158.3,123.9,157.7,123.2,157.1c-5.9-4-12.7-4.3-19.4-4.8C109.8,155.8,116.4,156.8,123.2,157.1z
			 M116.1,274.8c0.9,0.9,1.6,2.2,3.4,1.6C118.8,274.7,117.3,275.2,116.1,274.8c3.5-1.7,7.3-1.1,11-1.1c5.4,0,10.6-0.7,15.5-2.9
			c7.4-3.3,13.6-15,11.6-21.8c-0.1-0.4-0.7-0.9-1.2-1c-4.6-1.5-8.6-4.8-13.8-4.8c-12.4,0-24.7-0.1-37.1-0.1c-3.7,0-5.8,1.7-6.5,5.4
			c-1.2,6.6-2.5,13.1-3.7,19.7c-0.6,3.4,0.8,5.5,4.2,5.5C102.8,273.6,109.4,275.4,116.1,274.8z M103.9,203.3c-0.6,4,1.4,5.4,5,5.5
			c5.9,0.1,11.9-0.4,17.6,0.6c8.8,1.6,16.4-1.7,23.8-5c5.7-2.5,9-10.3,7.8-15.8c-1.4-6.5-6.5-8.5-12.1-9.3
			c-10.9-1.6-21.9-0.7-32.8-0.6c-2.9,0-4.7,1.6-5.3,4.5C106.5,189.8,105.2,196.5,103.9,203.3z M164.7,274.8c-1.3,0.2-3.4-1-4.2,1.5
			c-0.3,0.9-1.1,1.8-0.3,2.7c1.3,1.5,3.2,1.6,4.8,0.9c2.6-1.1,4.4-0.3,6.2,1.6c1.7,1.8,4.1,2.1,6.5,2.2c1.3,0.1,3,0.2,3.5-1.4
			c0.7-2-1-2.7-2.4-3.4C174.5,276.6,169.9,275.2,164.7,274.8z M111.3,170.7c1.5,0,3,0,3.7-1.4c0.4-0.8-0.2-1.9-0.8-1.9
			c-5.3,0.3-10.2-2.3-15.5-2.1c-0.8,0-1.6,0.5-1.4,1.4c0.1,0.4,0.7,1.1,1.1,1.1C102.9,168,107.1,169.9,111.3,170.7z M179.5,242
			c3.6,1.3,7,1.5,10.4,0.5c0.6-0.2,1.2-1,1.5-1.6c0.1-0.2-0.7-1.2-0.9-1.2C187,240.6,182.8,237.2,179.5,242z M92.2,183.5
			c3.2,2.1,5.3,4.6,9.1,3.5c0.4-0.1,1.1-1.1,1-1.2c-1.8-2.8-4.9-2.7-7.7-3.3C94.2,182.3,93.6,182.8,92.2,183.5z M124.2,227.3
			c3.1,4.4,3.1,4.4,7.3,1.4C129.2,227.6,127,226.9,124.2,227.3z M146.9,223.9c4,2,6.7,3.2,9.9,2.7
			C154.2,225.2,151.8,223,146.9,223.9z M137.9,163.4c-0.2-0.9-0.8-1.3-1.7-1.3c-0.9,0.1-1.3,0.8-1.3,1.7c0,1.2,0.6,1.9,1.9,1.5
			C137.6,164.9,137.9,164.2,137.9,163.4z M156.2,241.3c-0.1-1.1-0.7-1.8-1.7-2c-1.9-0.4-1.7,1.1-1.8,2.2c-0.1,1.2,0.5,1.9,1.7,1.7
			C155.4,243.1,156.1,242.5,156.2,241.3z M141.8,233.4c-0.4-1-0.5-2.4-2-2.3c-1.2,0.1-1.2,1.3-1,2.2c0.2,1.2,0.8,2.2,2.2,2
			C141.9,235,141.9,234.2,141.8,233.4z M197.1,172.7c-2.5-0.2-3.8,0.5-4.4,2.5c-0.1,0.2,0.4,0.8,0.6,0.8
			C195.5,176.2,196.6,175.2,197.1,172.7z"/>
		<path class="st6" d="M1017.5,376c-3.2-0.5-6.3-0.9-9.5-1.4c-2.8-0.9-5.6-1.7-8.3-2.7c-2.2-0.8-3.2,0.4-4.2,2.1
			c-0.5,0.9-1.1,2.3,0,2.5c4.7,0.9,8.4,6.3,14.2,3.1c-2.6-2.7-6.7-1.5-9.1-4.4c2.8-0.9,5.1,0.6,7.6,0.8c4.3,0.9,8.4,2.6,12.9,2.5
			l0,0c2.7,2.2,6.1,2.4,9.2,3.5c1.6,0.5,4.6,0.2,2.7,3.5c-3.2-1.8-6.6-3-10.3-2.5c2.9,2.6,6.6,2.4,10.1,2.8c5.9,3.8,9.3,11.3,7.9,18
			c-1.3,6.2-6.2,3.7-10,4.1c0,0-0.2,0.2-0.2,0.2c10.2,5.2,10.2,6.4,5.5,17.6c-8.7,20.7-24.4,33.3-45.5,39.3
			c-16.7,4.8-34,6.4-51.1,2.7c-17.8-3.9-35.8-8.2-49.4-21.9c-1.4-1.4-4.4-2.6-3.3-4.9c1.1-2.3,4.1-2.8,6.7-2.6
			c2.1,0.1,4.2,0.5,6.3,0.7c0.7-1.4-0.4-1.5-1-1.7c-8.2-2.5-8.2-2.5-1.8-8.8c5.1-4.9,10.4-9.5,15.3-14.7c3.5-3.7,6.1-4.1,10.3-0.7
			c14.4,11.7,31.1,17.1,49.7,16.1c4.6-0.2,9-1.2,12.8-3.8c7.7-5.2,7.1-13.8-1.4-18c-6.7-3.3-14-5-21.3-6.8
			c-11.2-2.8-22.4-5.8-32.7-11.3c-16-8.6-22.6-21.5-19.8-39.5c3.9-24.9,18.2-42,41.1-51c28.7-11.3,57.4-9.9,85.4,3.4
			c4.8,2.3,9.1,5.3,13.1,8.8c2.4,2.1,3.3,4.3,0.8,7c-7.9,8.7-15.6,17.6-23.6,26.2c-2.3,2.5-5.6,4.8-6.2-1.6
			c-0.1-1.3-0.9-2.4-2.2-2.4c-11-0.5-20.3-6.9-31.1-8.2c-8-1-15.6-1.2-22.7,3.3c-4,2.5-7.5-1.1-11.4-0.7c-0.7,0.1-1.5,0-2.9,0
			c1.2,2.1,3.1,2.2,4.5,2.7c3,1.1,5.2,2.7,5,6.3c-0.2,5.1,3,7.8,7.2,9.7c6.7,3,13.8,4.6,20.8,6.3c9.3,2.3,18.6,4.8,27.4,8.7
			c3.3,1.5,4.8,3.3,2.4,6.7C1017.5,375.3,1017.5,375.6,1017.5,376z M914,436.1l-0.4-0.2L914,436.1c3.4,2.5,7,4.3,11.3,3.7
			C921.9,437.6,918.2,436.1,914,436.1z M971.9,440.6c-0.7-0.5-0.8-0.2-0.5,0.5c-0.8,0.8-2.1,1.8-0.2,2.6c2.1,0.9,4.4,1.6,6.6,2.3
			c1,0.3,2.1,0.1,2.4-1c0.3-1.2-0.8-1.6-1.6-2C976.4,442.1,974.2,441.3,971.9,440.6z M940.5,433.6c7.7,3.4,16,4.4,24.5,2.7
			C957,434.7,948.7,435.1,940.5,433.6z M928.9,339.9c4.7,2.9,9.4,6,15.5,4.6C939.5,342.2,934.7,339.6,928.9,339.9z M961.5,357.7
			c3.3,4.5,7.4,6.2,12.7,3.4C970,359.9,965.8,358.8,961.5,357.7z M946.3,385.1c1.8,5.8,4.3,3.5,7.7,1.6
			C951.2,385.2,949.1,385.2,946.3,385.1z M941,354.3c-2.2-1.2-4.5-2.4-6.7-3.6C935.2,354.4,937.8,355.1,941,354.3z M953.6,451.7
			c-2.5-1.8-5.2-2.7-8.4-1.7C947.8,451.4,950.5,452.4,953.6,451.7z M1009.8,311c1.7,2,3.5,1.7,5.2,0.8c0.2-0.1,0.3-1.2,0.1-1.4
			C1013.6,309.1,1012,309.5,1009.8,311z M1000.1,425.7c-3.3-2-5.3-3.3-8.3-2.3C994,425.8,996.2,426,1000.1,425.7z M997.7,446.3
			c2.6,0,4.3,1.5,5.8-1.3C1001.7,444.6,1000.1,444.2,997.7,446.3z M924.3,349.1c-2.1-1.6-3.7-2.2-6.4-1.1
			C920.2,349.1,921.5,350.1,924.3,349.1z M962.6,392.2c-0.9,0.1-1.3,0.5-0.9,1.1c0.3,0.4,0.9,0.7,1.4,0.7c0.7,0.1,1.1-0.5,0.7-1
			C963.6,392.6,963,392.4,962.6,392.2z M972.5,395.9c-0.6-0.2-1.2-0.5-1.9-0.6c-0.5-0.1-1.3,0.2-1,0.8c0.3,0.5,1.2,0.8,1.8,1
			C971.9,397.2,972.5,397,972.5,395.9z"/>
		<g>
			<path class="st6" d="M446.7,431.5c2.5,4.6-2.2,6.7-3.8,9.6c-5.6,10.1-9.5,11.4-20.2,8c-1.1-0.4-2.2-0.7-3.4-0.9
				c-0.5-0.1-1.1,0.1-2.4,0.3c2.1,1.6,3.7,2.8,5.2,4.1c-1.2-0.1-2.3-1.4-3.6-0.2c1.2,1.5,2.4,0.6,3.6,0.1c1.9,0.2,4.4-0.3,4.9,2
				c0.4,2-2,2.7-3.4,3.4c-11.2,5.5-22.4,11.1-35.5,8.5c-0.4,0-0.9,0-1.3,0c0.3,0.2,0.6,0.4,0.9,0.5c0.3,2.9-2,1.9-3.2,1.9
				c-12.4,0.3-25.1,1.3-36.4-5.4c-3.4-2-8-0.3-10.8-3.9c4.6-1.3,9.4-0.1,14.1-1c-5-2.1-10.1-3.7-15.2-5.2c-1.6-0.5-3.2-0.6-3.2,1.9
				c-3.8,0.3-3.8,0.3-2.1,3.7c-1.8,1.2-3.4,0-4.9-0.6c-7.7-3.1-13.4-9.2-20.2-13.6c-3.4-2.2-3.7-5.1-0.9-8.4
				c7.9-9.2,14.2-19.2,17.9-30.8c1.7-5.3,4.3-3.8,7.1-0.9c12.1,12.5,26.3,21.1,43.7,23.6c8.1,1.1,16.3,2.5,24.4,0
				c5.5-1.7,7.6-6.4,8.6-11.5c1-5.2-2.6-7.9-6.7-9.8c-6.4-3-13.3-4.6-20.2-6.3c-11.8-3-23.6-5.9-34.3-12c-15.8-9-21.8-22-18.8-39.9
				c1-5.9,3.4-8.9,9.6-8c0,0-0.1-0.1-0.1-0.1c0.8,1.5,2,2.3,3.6,2.7c10.6,2.4,21.2,4.8,31.8,7.3c0.8,0.2,1.5,0.4,2.3,0.7
				c20.1,6.2,41.2,9.1,60.5,18.2c4.3,2,8.6,4.4,12.3,8.9c-5.6,0.8-10.4-2.2-16.2-1.3c4.2,4.1,8.9,4.3,13.2,5.5
				c10.2,2.8,13.5,5.6,13.2,16.1c-0.3,9.2-0.1,18.7-4.3,27.4c-1.2,2.6-2.4,5-5.7,5.2c-0.3-0.1-0.7-0.1-1-0.2
				C446.1,431.3,446.4,431.4,446.7,431.5z M387.9,445.6L387.9,445.6c0.1-4.4-0.2-4.6-5-3c0.7,0.5,1.3,1,1.9,1.4
				C385.9,444.6,386.9,445.1,387.9,445.6z M381.1,389.1c-0.1,0.6-0.3,1.2-0.4,1.8c2.9,0.9,5.7,2.5,8.6,2.6
				c16.6,0.5,31.5,7.4,47.2,11.3c3.1,0.7,5.4,3.3,8.7,3.3c1.4,0,2.9-0.3,3.2-1.9c0.3-1.4-0.9-2-2-2.5c-1.1-0.4-2.2-0.8-3.4-1.1
				c-15-3.7-29.9-7.5-45-11C392.5,390.4,386.8,389.9,381.1,389.1z M377.8,438.5c0.2-0.7,0.3-1.3,0.5-2c-8.4-1.5-16.4-4.9-25.3-4.5
				C361.2,434.2,369.5,436.3,377.8,438.5z M393.6,365c5.1,2,10.4,2.9,16.7,2.9C405.5,364.7,400.8,363.9,393.6,365z M383.5,456.7
				c2.8,2.7,5.6,5.2,10.9,5.4C391,458.3,387.7,456.7,383.5,456.7z M392.4,369.1c-3.4-1.4-5.5-2.3-8.6-1.1
				C386.6,369.4,388.7,370.2,392.4,369.1z M363,383.5c3.8,1.8,6.6,2.3,9.5,1.6C369.8,384.4,367.3,382.6,363,383.5z M339.9,357.5
				c2.7,1.4,4.5,2,7.6,1C344.6,357,342.9,356.2,339.9,357.5z M380.3,386.4c-0.3-0.1-0.6-0.2-0.9-0.3c0,0.3-0.1,0.6,0,0.8
				c0,0.1,0.4,0.2,0.4,0.1C380.1,386.9,380.2,386.6,380.3,386.4z"/>
			<path class="st6" d="M373.8,351.4c-0.8-0.2-1.5-0.4-2.3-0.7c-0.5-1.4-1.8-2-3.1-2.4c-10.7-2.8-21.2-6.6-32.3-7.6
				c0,0,0.1,0.1,0.1,0.1c-3.4-2.3-6.6-4-4.3-9.7c4.4-10.8,11.2-4,17.3-2.8c-0.1-3.8-3.5-3.6-6.3-6.3c11.9,0.3,21.7-4.4,32-7.1
				c5.7,1.4,10.5,6.1,18,5.7c-5.7-4.3-11.5-5.2-17.1-6.7c3.4-4.4,7.9-5.4,13.1-3.9c5.7,1.7,11.5,3.2,17.2,4.8
				c0.2-0.5,0.3-1.1,0.5-1.6c-4.7-1.5-9.5-2.9-14.1-4.6c-5.5-2-5.4-3.1-2.4-8c4.7-7.5,11-9.9,19.8-9.2c15.6,1.3,30.6,4.3,44.5,11.8
				c7,3.8,7.9,7.6,1.9,12.5c-2.9,2.4-1.5,5.3-2.9,7.7c-4,6.8-8.3,13.3-13.4,19.3c-2.5,2.9-5.1,2.4-7.7,0.5
				c-8.5-6.4-19.7-7.4-28.2-14.1c-1.4-1.1-3.7-0.9-5.6-1.3c-1.7-1.6-3.6-2.7-6.2-1.2c2,0.5,3.9,1,5.9,1.5c1.2,1.6,0.7,2.2-1.2,2.6
				c-3.6,0.6-7.3,1.3-10.8,2.4c-7.7,2.3-11,7.4-10.5,15.9C375.9,350.2,374.5,350.5,373.8,351.4z M379.3,321.3
				c2.9,1.7,4.8,2.8,8.4,2.1C384.9,321.7,383.1,320.4,379.3,321.3z M426.6,312.4c2.8,1.4,4.2,2.4,6.2,1.3c0.1,0,0-0.4,0-0.6
				C431.5,312.1,430,311.8,426.6,312.4z"/>
		</g>
		<g>
			<path class="st6" d="M656.2,295.7c5.8,0,11.2,1.7,16.5,4c0.6,0.8,1.4,1.1,2.4,0.9c14.7,1.6,25.6,9.5,34.8,20.2
				c-0.2,0.6-0.4,1.2-0.6,1.7c-12.7-3.1-25.3-6.2-38-9.3c-0.1,0.5-0.3,1-0.4,1.5c6.5,2.2,13,4.7,19.6,6.6c7,2,14,3.5,21.1,5
				c2.8,0.6,3.8,2.5,4.9,4.6c6.3,12.1,7.5,25,6.6,38.3c-0.2,3.4-1.9,4.9-5.4,4.3c-1.8-0.3-3.7-1.6-5.5,0.2c0.9,2.7,3.6,2,5.4,2.8
				c1.6,0.8,4.3,0.5,3.8,3.5c-0.5,2.4-2.4,2.8-4.5,2.9c-1,0-2,0.1-2.9,0.1l0.1,0c-6.6-3.4-13.8-5-21-6.5c-4.8-1-9.5-1.9-14.2-3.2
				c-5.4-1.6-6.4-4.7-3.7-10.3c2.2,1,4.4,2.2,7,0.2c-2.3-0.2-4.5-0.3-6.8-0.5c-1.6-1.2-3-2.6-3.6-4.5c-5-14.8-17.4-19.1-31-20.9
				c-7.9-1-16-0.3-24-0.4c-2.6,0-3.3,0.7-3.5,3.7c-0.4,5.8,0.7,12.3-5.2,16.4c0,0,0.1,0,0.1,0c-2.9-1.8-6.2-2.1-9.4-2.7
				c-8.6-3.7-18.5-3.4-26.8-8c-4.9-1.2-6.3-3.9-5.2-9.1c2.2-9.9,3.7-20,5.6-30c2-10.6,2.9-12.4,13.6-12.4c20.7,0,41.5-1.7,62.2,0.9
				c1.6,0.5,3.2,1,4.8,1.5c0.7,0.3,1.4,0.6,2.1,1c2.4,0.5,4.7,0.9,8.3,1.6c-2.7-2.5-5-2.4-7-3.1
				C656.2,296.6,656.2,296.2,656.2,295.7z M603.3,337.2c1.9-0.7,1.5-1.7,0-2.1c-2.8-0.8-5.7-1.4-8.5-1.9c-0.9-0.2-2.1-0.3-2.5,0.8
				c-0.4,1.1,0.5,1.8,1.3,2.3c4.2,2.4,8.5,4.6,14.5,4.2C606,339.1,604.6,338.2,603.3,337.2L603.3,337.2z M664.4,340.1
				c-5.5-4.1-18.2-8.7-23-8.8c-1.4,0-3.3-0.4-3.5,1.3c-0.3,2.6,2,1.7,3.4,1.8c3.8,0.1,7.2,0.9,10.5,3
				C655.2,339.6,659.1,339.8,664.4,340.1z M587.4,331.7c0-0.2-0.1-0.5-0.1-0.5c-0.3,0-0.6,0.1-0.9,0.2c0,0.2,0.1,0.5,0.1,0.5
				C586.8,331.9,587.1,331.8,587.4,331.7z M707.8,342.8c0-0.2,0-0.4-0.1-0.4c-0.1-0.1-0.4-0.1-0.5-0.1c-0.4,0.3-0.4,0.5,0.1,0.7
				C707.5,342.9,707.7,342.8,707.8,342.8z M697.4,340.4l0.3-0.3l-0.4-0.1L697.4,340.4z"/>
			<path class="st6" d="M619.8,443.3c-2.6-1.9-5.7-2.4-8.8-3.2c-17.9-4.3-35.7-8.8-53.6-12.8c-5.8-1.3-7.3-4.1-5.9-9.5
				c1.1-4.5,1.7-9.2,2.7-13.8c1.2-5.7,3.4-6.7,8.7-4.4c11,4.7,22.4,8.1,34.6,7.2l-0.1,0c2.5,2.8,3.5,5.9,2.4,9.7
				c-1.3,4.7,0.3,6.9,5.4,7c17.2,0.5,34.1,0,48.7-11.1c4.1-3.1,9.2-1.3,13.7-0.5c10.2,1.8,20.3,4.3,30.3,6.7
				c6.1,1.5,6.5,2.5,2.7,7.2c-8.2,10.2-18.1,18.3-29.4,24.9c-3.9,2.3-7.7,0.8-11.8,0.4c-5.4-0.5-10.8-0.9-16.2-1.4
				c-0.8-1.4-2-2.3-3.5-2.9c-4.7-0.8-9.4-1.6-14-2.4l0.1,0C623.8,443.4,621.8,443.1,619.8,443.3L619.8,443.3z M660.4,434.8
				c-0.5-0.8-1.1-1.9-2.4-1.9c-0.9,0-1.5,0.6-1.4,1.4c0.1,1.4,1.3,1.8,2.5,1.9C659.9,436.3,660.5,436.1,660.4,434.8z"/>
			<path class="st6" d="M625.6,444.4c7.3,3.6,13.6,9.6,22.8,8.6c2.6-0.3,7-0.3,7.2,3.2c0.3,3.1-3.9,3.2-6.4,3.9
				c-28.2,8.1-57.1,7.5-85.9,6c-19.6-1-20.2-2.8-16.7-21.8c3.6-20.1,1.8-17,20-12.9c14.3,3.2,28.5,6.8,42.8,10.3
				c3.4,0.8,6.8,1.8,10.4,1.7l-0.1,0C621.6,444.3,623.6,444.5,625.6,444.4L625.6,444.4z M609,453.8c-3.9-2.9-8.2-3.8-12.9-3.4
				C599.9,453.4,604.5,453.5,609,453.8z"/>
			<path class="st6" d="M597.5,406.7c-6.4-1.7-12.7-3.7-19.1-5.1c-6.6-1.5-12.3-4.9-18.4-7.3c-1.5-0.6-3.2-1.4-2.8-3.3
				c1.4-5.8,0.2-12.1,3.7-17.5c0.2-0.3,0.2-0.6,0-0.9c0-1.2,0-2.5,0-3.7c12.9,3.4,25.8,6.9,38.6,10.3c0.1-0.5,0.3-1,0.4-1.5
				c-12.7-3.6-25.3-7.3-38-10.9c-1-6,2.3-11.3,3-17c0.3-2.4,2.3-2.2,4.1-1.9c2.1,1.3,4.1,2.8,6.7,3.3c7.6,1.5,15.2,3.1,22.8,4.7
				c3,1,6.1,1.7,9.4,1.4l-0.1,0c0.2,0.9,1.8,2.2-0.5,2.5c-2.3,0.3-3.1,1-0.9,2.6c2.8,2,2.4,4.6,1.9,7.3c-1.9,10.1-3.8,20.3-5.7,30.4
				C602.2,403.3,601.3,406.2,597.5,406.7C597.4,406.7,597.5,406.7,597.5,406.7z M592.1,381c-8.2-3.4-16.7-5.6-25.5-6.4
				C574.8,378,583.3,380.1,592.1,381z M597.4,399.9c-6.3-3.1-10.9-7-17.2-6.4C585.2,396.2,589.9,400,597.4,399.9z M582.1,368.7
				c2.7,2.4,4.6,3.2,7.5,2.8C587.7,369.2,585.7,368.8,582.1,368.7z M574.2,381.5c1.2,1.2,2.4,1.5,4.2,1
				C576.9,381.2,575.8,380.7,574.2,381.5z M598.5,382.5c-0.1,0.1-0.2,0.3-0.2,0.4c0.1,0.1,0.3,0.2,0.4,0.3c0.1-0.2,0.2-0.5,0.2-0.7
				C598.9,382.6,598.7,382.6,598.5,382.5z M584.4,383.6l-0.3,0.3l0.4,0.1L584.4,383.6z"/>
			<path class="st6" d="M709.1,408c1.2,6.8-1.2,9.4-7.6,8.2c-11.7-2.2-23.4-4.3-35.1-6.8c-6.1-1.3-6.5-2.3-3.1-7.2
				c4.5-6.5,7.8-13.7,9.3-21.4c1-5.5,3.6-6,8.2-4.8c8.9,2.3,17.5,5.5,26.7,6.5c2.1,0.2,4.3,0.4,6.4,0.6c0,0-0.1,0-0.1,0
				c6,2.3,6.4,6.5,3.9,11.6c-2.3,4.7-2.2,10.9-8.5,13c0,0-0.5-0.1-0.5-0.1L709.1,408z M686.8,385.6c0.3,0.1,0.6,0.1,0.9,0.2
				C687.5,385.7,687.2,385.6,686.8,385.6c-0.3-0.1-0.5-1-1-0.2C686.2,385.4,686.5,385.5,686.8,385.6z M695,403.6
				c2.5,1.8,5,3.2,9.3,2C700.6,403.8,698,402.9,695,403.6z M676.6,383.2c0.6,0.2,1.3,0.6,2,0.7c0.5,0.1,1.3-0.1,0.8-0.9
				c-0.2-0.4-1-0.6-1.5-0.7C677.4,382.2,676.7,382.1,676.6,383.2z"/>
		</g>
		<g>
			<path class="st6" d="M485.9,346.4c2.6-13.7,5.2-27.3,7.7-41c0.9-5.1,2.3-7.3,8.7-8.8c11.1-2.6,21.9-1.1,32.8-1.7
				c7.8-0.4,8.5,0.9,7.1,8.6c-2.8,15.4-5.7,30.8-8.6,46.1c-0.6,3-0.6,6.4-4.4,7.7l0.1,0c-1.2-0.5-2.4-0.9-3.5-1.4
				c-3.5-2.8-7.3-3.5-11.9-3.6c-6.7-0.1-13.3-2.1-20-3.3l0.1,0C491.2,348.2,488.5,347.3,485.9,346.4z M509.7,331.2
				c3.3,2.2,6.9,2.8,10.7,2.7C517.2,331.6,513.5,331.2,509.7,331.2z"/>
			<path class="st6" d="M496.7,452.3c-6.7-3.6-13.9-5.1-21.1-6.8c-7.4-1.8-7.8-2.2-6.4-9.6c1.3-7.1,2.8-14.2,4-21.4
				c0.8-4.3,3.4-6,7.1-4.2c10.4,5,21.9,5.3,32.8,7.9c4.9,1.2,7,3.4,5.9,8.7c-2.3,11.1-4.3,22.3-6.3,33.5c-0.7,4.2-3.1,6.4-7.2,6
				c-11.9-1.2-23.8,0.1-35.7,0.1c-4.3,0-6.2-1.6-5.3-6.1c3.4-17.4,1.6-14.7,16.4-11C486.1,450.7,491,453.3,496.7,452.3z"/>
			<path class="st6" d="M529.1,357.2c3.5,4.9,2.2,9.9-1.2,13.8c-1.6,1.8-0.8,2.1-0.3,3.6c1.2,3.9,0.4,7.9-1.9,11.1
				c-2.4,3.3-5.8,1-8.7,0.4c-10.4-2.5-21-4.4-31-8.6c-3.8-1.6-5.3-3.6-4.5-7.5c1.5-7.3,2.8-14.6,4.2-21.9c2.7,0.3,5.5,0.7,8.2,1
				l-0.1,0c4.7,2.6,9,6.6,14.6,6.4c5.9-0.3,11.5,0.9,17.2,1.7C526.8,357.2,528,357.2,529.1,357.2L529.1,357.2z M493.8,364.1
				c-2-1.6-4.3-2.5-7.9-2.3C488.7,364,491.1,364.5,493.8,364.1z"/>
			<path class="st6" d="M482,388.1c-3.1-1.2-3.7-3.4-2.2-6.1c1.6-2.8,4.6-2.8,6.7-1.6c9.9,5.9,21.4,5.4,32.1,8.5
				c4.5,1.3,7,3.1,5.9,8.2c-1.1,5-1.8,10-2.8,15c-0.7,3.7-2.7,5.7-6.6,4.7c-12-2.9-24-5.9-36-8.9c-2.9-0.7-4.5-2.9-3.5-5.7
				c1.5-4.6-1-11.3,6.5-12.9c9.5,1.2,17.8,7.8,27.8,6.6C501,391.6,491.5,390,482,388.1z"/>
		</g>
		<g>
			<g>
				<path class="st6" d="M764.5,433.8c-8.3-4.3-17.6-5.1-26.4-7.7c-6.9-2-7.5-3.4-3.9-9.7c0.6-1.1,0.4-1.6,0.2-2.5
					c-1.5-7,1.4-13.5,2.6-20.1c0.4-2.1,2.3-3,4.1-2.2c11.6,5,24.4,5.4,36.2,9.6c3.9,1.4,4.8,3.7,4.2,7.6
					c-2.5,17.1-2.5,17.4-18.8,12.1c-6.8-2.2-13.8-1.2-20.7-2.6c2.4,2.9,5.2,5,8.7,5.5c10.7,1.7,20.7,6.3,32,6.9
					c6,0.3,12.6,3.4,19,5.4c4.3,1.3,8.6,4.2,13.5,2.4l0,0c3.5-0.2,7-1.1,10.5-0.3c0.3,0.1,0.6,0.2,0.9,0.4c1.3-0.4,2.6-0.8,3.9-1.2
					l-0.1,0.1c7.4,4.6,16.2,4.3,24.1,6.9c2.2,0.7,4.6,1.2,6.8,1.9c1.1,0.4,2.8,0.9,2.9,1.6c0.8,5.2,0,10.3-1.4,15.3
					c-0.9,3-3.6,3.4-6.2,3.3c-8.9-0.3-18.1,1.7-26.7-2.4c-0.8-0.4-2.5-0.7-2.7-0.3c-3.2,5-8.2,2.6-12.3,2.7
					c-22.5,0.2-45.1-0.1-67.6,0.2c-6.6,0.1-13.1-2.3-19.8-0.7c-2.6,0.6-4-1.5-3.5-4.1c1.7-9.3,3.4-18.5,5.2-27.7
					c0.5-2.8,2.5-4.1,5.2-3.2C744.3,434.4,754.5,432.3,764.5,433.8c0.3,0.1,0.6,0.1,1,0.2C765.2,433.9,764.8,433.9,764.5,433.8z
					 M811.6,445.7c-9.9-5.5-34.9-11-41-8.8C785.2,439.4,797.7,445,811.6,445.7z M823,446.8c-1.7-1.1-3.4-2-5.9-0.6
					C819.3,447.3,821.1,447.3,823,446.8z"/>
				<path class="st6" d="M867,387.8c-1,10.3-1.5,10.6-11.8,10.8c-24.5,0.4-49-0.5-73.5,0.5c-8.2,0.3-16.1-3.1-24.1-5.1
					c-4.9-1.3-9.8-2.7-14.7-4.1c-2.7-0.8-4.6-2.5-3.9-5.6c0.9-3.6,3.6-2.9,6.2-2.2c3.8,1,7.6,2,11.4,2.8c1.4,0.3,3.6,1.2,4-0.9
					c0.4-2.3-1.6-2.7-3.6-2.4c-4.2,0.6-8.1-1-12.1-1.8c-3.5-0.8-4.9-2.8-4.3-6.4c2.1-11.2,4.2-22.3,6.3-33.5c0.6-3,2.4-5,5.4-3.7
					c11,5,23.4,4.6,34.6,9c4.2,1.6,5.8,3.6,4.9,8.3c-1.3,6.8-0.5,7.5,6.5,7.5c16.7,0.1,33.3,0.2,50-0.1c6.9-0.1,13.6,1,20.3,2.1
					c3.3,0.5,3,2.5,2.6,4.7c-1,6-2.1,12-3.2,17.9c-0.8,0-1.5,0-2.3,0c-3.5-4.1-17.9-7.6-24.7-5.3c8.8,2.4,17.1,2.3,24.6,5.4
					C866.1,386.3,866.6,387.1,867,387.8z M855.7,390.5c-2-2.1-4.4-0.3-6.6-1c-2.1-0.6-4.2-0.9-6.3-1.3
					C850,392.4,852.1,392.7,855.7,390.5z M805.4,367.6c-4.2-2.2-8.7-4.2-13.8-4.2C795.6,366.4,800.3,367.4,805.4,367.6z"/>
				<path class="st6" d="M764.4,324.5c-2.6-0.7-5.3-1.4-7.9-2.2c-1.6-0.5-3.9-1.1-3.3-3.3c0.5-2.2,2.6-0.8,4-0.8
					c0.7,0,1.5-0.1,2.2-0.2c-0.1-0.6,0-1.1-0.3-1.3c-2.1-1.8-6.6-1.1-6.6-4.9c0.1-5.2,0.7-10.6,3.3-15.3c0.7-1.3,2.3-1.3,3.7-1.3
					c42.1-0.1,84.1-0.3,126.2-0.3c2.5,0,5.8-0.2,6.3,2.9c0.6,3.8,0.7,8-3.9,10c-0.4-0.1-0.7-0.9-1.1-0.1c0.3,0.1,0.6,0.2,1,0.4
					c1.3,1.3,2.3,2.7,2,4.7c-1,6.3-3.1,12.3-3.6,18.6c-0.2,2.7-2.8,3.7-5.3,3.6c-11.7-0.2-23.5,1.4-35.2-1.4
					c-1.1-0.3-2.4-0.7-3.5-0.4c-13.3,3.7-26.9,1.3-40.4,1.9c-3.3,0.2-6.3,0.5-7.5,4.2c-1,3.1-3.2,3.6-6.1,2.9
					c-11.8-2.9-23.8-4.7-35.5-8.1c-2.6-0.8-4.3-1.8-3.9-4.8c0.4-2.9,1.8-4.7,5-4.6c3.6,0,7,0.9,10.4,1.8c11.8,5.6,24.8,3.3,36.9,7
					c0.1-0.5,0.2-0.9,0.3-1.4c-10-2.6-20-5.1-30-7.7c0,0,0.4-0.3,0.4-0.3l-0.4,0.2C769.2,324.3,766.8,324.4,764.4,324.5z
					 M876.4,319.8c-6.2-1.5-12.4-3-18.6-4.5C863.4,319.3,869.6,321,876.4,319.8z M834.9,333.2c0.7-0.2,1.7-0.4,1.2-1.3
					c-0.4-0.7-1.5-1-2.4-1.2c-0.3-0.1-1.1,0.7-1,0.9C833,332.6,833.8,333.1,834.9,333.2z"/>
			</g>
			<path class="st6" d="M826.6,438.6c-0.3-0.1-0.6-0.3-0.9-0.4c-6.4-4.4-14-4.7-21.2-6.3c-5.1-1.2-10.4-1.8-14.3-5.7
				c0.6-0.8,1.6-0.5,2.5-0.5c23.3,0,46.7-0.1,70,0c6.7,0,7.2,0.7,6.1,7.2c-2,13-2,13-14.6,9.4c-4.1-1.2-8.3-2.3-12.4-3.6
				c-2.9-0.9-5.2-2.2-7-5c-1.9-3-7.3-5-13.1-5.4c2.1,3.9,10.3,2,8.6,9.2c0,0,0.1-0.1,0.1-0.1C829.2,437.7,827.9,438.1,826.6,438.6z"
				/>
		</g>
		<g>
			<path class="st6" d="M371.4,256.3c0,14-11.1,25.2-24.9,25.3c-13.5,0.1-25.3-11.7-25.2-25.1c0.1-14.1,11-25.1,25-25.1
				C360.3,231.3,371.4,242.4,371.4,256.3z"/>
			<path class="st6" d="M193.2,379.7c-14,0-25.2-10.9-25.3-24.7c0-13.8,11.2-25.2,24.9-25.2c13.9,0,25.4,11.3,25.3,24.9
				C218.1,368.7,207.2,379.7,193.2,379.7z"/>
		</g>
		<g>
			<path class="st7" d="M305.5,310.2c1.2,0.3,3,1.5,2.7,1.8c-4.9,4.5,0.9,4.7,2.5,6.7c2.6,3.4,2.8,6.5-2,8.1
				c0.1,0.3,0.1,0.5,0.1,0.7c0.8,1.8,5.9,2.2,3.1,4.6c-2.4,2.1-6.2-0.9-9.4-1.6c-16.2-3.8-31.9-9.4-48.3-12.3
				c-5.3-0.9-10-2.6-12.2-7.8c-3.1-7.4-10.3-9.8-15.9-14c-3.1-2.3-6.8-3.8-10.4-5.5c-3.4-1.6-4.6-4-3.5-7.6c2.7-8.8,5.4-17.6,8-26.5
				c1-3.5,3.3-3.9,6.4-3c7.2,2.1,14.4,3.8,21.9,4.4c1.6,0.1,4.2,0.9,4.4-1.4c0.3-2.3-2.4-2.1-4-2.5c-6.9-1.5-14,0.7-20.9-2.1
				c-3.3-1.4-6-1.9-3.7-6.3c0.5-1,0.2-2.3,0.4-3.5c1.2-6.9,3.4-8.3,10.1-6.5c6.2,1.7,12.4,3.6,18.7,5.2c2.9,0.7,6.1,1.3,10.2-1.4
				c-10.3-0.7-18.8-3.2-27.2-5.9c-3-1-8.1-0.3-7.4-5.6c0.5-4.6,1.4-9.7,8.6-9.7c-4.5-1.7-4.7-4.2-3.3-7.9
				c3.3-8.8,5.8-17.8,12.1-25.2c2-2.3,3.5-3,6.3-2.8c4.8,0.3,9.3,1.3,13.6,3.2c3.2,1.5,6.5,2.6,10.5,1.4c-1.3-2-6.8-0.6-4.2-5.8
				c0.8-1.6-3.1-3.4-5.9-3.4c-0.4,0-0.8,0.2-1.1,0.5c-3.8,2.8-7.5,1.3-11-0.4c-1.8-0.9-1.2-2.8-0.2-4.1c2.8-3.4,4.9-8,10.7-6.3
				c0.4,0.1,0.8,0.1,1.2,0.1c0.5,0,0.9,0,1.4,0c-0.3-0.2-0.6-0.5-0.8-0.7c-2.9-1.9-2.8-3.9-0.2-6c5.4-4.5,11-8.8,16.9-12.7
				c2.6-1.7,5.1-1.5,7.9-0.6c3.3,1.1,6.7,2.3,10.3,2.2c0,0,0.5,0.2,0.5,0.2l-0.3-0.3c-1.3-0.8-2.7-1.6-4-2.4c-1.6-1-4.6-0.9-4.5-3
				c0.1-2.7,3.2-2.9,5.3-3.7c4.1-1.6,8.3-1.7,12.4-0.1c1.2,0.4,2.4,0.8,3.5,1.2c0.8,0.4,1.6,0.8,2.4,1.1c0.2,0,0.3,0,0.5,0
				c-0.1-0.1-0.2-0.1-0.4-0.2c-0.8-0.4-1.5-0.8-2.3-1.2c-1.1-0.5-2.3-0.9-3.4-1.4c-0.6-0.9-2.1-1.1-2.3-3.2
				c4.8,1.2,9.5,2.9,14.2,3.3c21.7,1.9,42.1,10.3,63.6,13c4.8,0.6,9.6,1.8,14,4.3c2.8,1.6,6,1.8,9.2,1.3c5.1-0.8,10.7,0.1,14.2,2.6
				c6.3,4.7,14.8,5.7,19.4,13.5c4.2,7.2,9.7,13.8,13.5,21.3c0.5,1,1.3,2.2,0.7,3.3c-0.9,1.5-2.4,0.8-3.7,0.5
				c-4.9-1-9.8-2.1-15.7-3.4c1.7,3.5,4,3.4,5.9,3.8c4.6,1,9.3,1.7,13.4,4.1c1.9,1.1,4.2,1.9,4.3,4.4c0.2,3.3-3.5,1.3-4.7,3
				c7.9,3.5,13.3,14.9,11.1,23.8c-0.4,1.8-0.1,2.6,0.5,4.1c2.5,5.8,2,11.9,1.4,18c-0.2,2.3-1.9,3.3-4,3.7c-4-1.7-8-2.9-13.4-2.9
				c4.6,3.1,8.9,3,13.2,3.2c0.7,0.9,1.4,1.9,2.2,2.8c1.6,1.9,1.4,4,0.5,6.1c-1,2.4-3.2,2.8-5.4,2.4c-16.2-2.8-32.5-5.6-48.7-8.5
				c-2-0.3-4.2-1.2-4.3-3.4c-0.3-5.5-0.3-11,0-16.4c0.1-2.4,2.4-2.6,4.5-2.4c4,0.3,7.6,1.8,11.3,3.1c1.8,0.7,3.3,1.7,4.5,3.4
				c2,3,6.6,2,6.9,0.5c0.6-4,3.8-2.2,6.3-3.6c-4.7-2.2-9.1-1.8-13.1-2.9c-6.7-1.3-13.3-2.6-20.9-4c3.6-3.2,7-0.7,9.9-1.6
				c-0.2-0.4-0.3-0.9-0.5-0.9c-8.5-0.1-12.4-4.8-16.1-12.4c-12.8-26.3-42.2-37.9-67.8-32.2c-5.2,1.2-10,0.9-14.9-0.9
				c-6.5-2.4-13.1-4.1-20.1-3.3c-0.2,0.3-0.2,0.7,0,1c5.3,1.2,10.7,2.3,16,3.6c2,0.5,5,0.2,5.4,2.6c0.3,2.1-2.7,2.4-4.2,3.5
				c-3.7,2.8-7.2,2.4-11.9,1.1c-17.5-4.6-35.2-8.1-52.8-12c-0.1,0.5-0.3,1.1-0.4,1.6c9.1,2.6,18.1,5.5,27.3,7.7
				c7.7,1.9,16,1.6,23.1,5.9c1.4,0.8,4.7,0.5,3.3,3.6c-1,2.2-3.2,3.7-5.8,3c-3.1-0.9-6-0.8-9.2-0.2c0.6,0.7,0.7,1.1,1,1.3
				c1.8,1.3,5.4,0.9,5.5,3.7c0,3.1-2.7,4.5-5.8,4.6c-0.8,0-1.8,0.5-1.3,1.4c2.2,4.2-1.4,6.6-2.8,9.5c-4.6,9.3-7.2,19-7.4,29.4
				c-0.1,7-0.2,7.1-7.3,8.3c1.6,1.9,4,1.8,5.7,2.7c3.9,2,4.6,5.7,0.9,7.9c-3.2,2-0.4,2.3,0.4,3c9.3,8.2,14.7,19.6,23.9,27.8l0,0
				c-4.5,0.4-9-1.6-13.6-0.2C295.7,310,300,316.7,305.5,310.2L305.5,310.2z M447.2,258.2c0.1-0.5,0.2-1,0.2-1.5
				c-9.2-2.1-18.5-4.1-27.7-6.2c-0.1,0.6-0.2,1.2-0.4,1.7C428.3,255.4,437.9,256.2,447.2,258.2z M270,265.3
				c-6.4-4.7-12.9-5.7-17.3-3.6C258.8,263,264.4,264.2,270,265.3z M284.3,183.5c4.5,2.7,8.3,3,12.2,2.1
				C292.9,184.5,289.5,182.3,284.3,183.5z M248.7,205.2c-2.9-1.1-4.7-1.4-6.7,0.3C244.2,206.8,246,206.7,248.7,205.2z M316.8,154.2
				c0-0.4,0.2-0.9,0.1-1c-1.9-1-3.8-1.7-7.1-1.5C312.7,153.6,314.6,154.2,316.8,154.2z"/>
			<path class="st7" d="M196,448c12.7,6.5,27,8.5,39.9,14.5c-0.4,2.2-2.5,2.1-4,2.6C155.7,490,81.1,438.9,71.4,364.6
				c-1.2-9.6-1.5-19.1-0.4-28.8c0.6-4.8,2.6-6.9,7.5-6.9c14.9,0.2,29.8,0.1,44.7,0c5,0,6.8,1.4,5.1,6.7c-4.1,12.7-4.2,25.5-0.3,38.2
				c0.4,1.4,1.7,3.2,0.1,4.4c-1.4,1.1-2.9-0.5-4.3-1.1c-1.6-0.6-2.9-2.2-4.9-1.1c-0.1,1.8,1.4,2.5,2.5,2.9c7.7,2.6,12.3,8.4,17,14.7
				c24.2,32,73.4,32.2,98.1,0.6c7.5-9.6,14.4-19.7,16.9-32c1.2-5.8,6.2-6.3,12.2-2.2c4.8,3.3,9.5,4.4,14.8,4.2
				c5-0.1,9.6,1.7,14.5,2.3l-0.1,0c5.3,1.2,8.8,6.1,14.7,6.7c3.6,0.4,2.1,4,1.6,6.3c-0.7,3.1-2.5,4.6-6,3.9c-3.2-0.7-6.2-3.2-11.4-1
				c3.7,1.2,6,2.1,8.4,2.7c6.6,1.6,7.1,2.2,4.5,8.7c-7.3,18.4-18.3,34.1-33.2,47.2c-1.9,1.7-4.1,3.1-5.9,4.9
				c-13.3,13.3-28.5,13.5-44.8,6.7c-8.5-3.5-17.1-7.1-26.7-4.9c2.4-6.3-3-2.6-4.7-3.6l0,0.1c-0.5-0.5-0.9-0.7-1.3,0.1
				c-3.4,1.7-7-1-11.7,0c4.9,3.1,9,2.6,13,1.5C193.4,445.8,194.6,447,196,448z"/>
			<path class="st7" d="M295,366.7c-1.4-2.8-4.3-3.2-6.9-3.9c-8.7-2.3-17.3-4.7-26-6.7c-5.3-1.2-7.7-3.9-7.2-9.4
				c0.3-2.9-0.1-5.8-0.1-8.8c2.2,1.2,4.2,2.9,6.9,2.2c0.3-0.1,0.7-1.1,0.6-1.3c-2.1-2.6-4.9-1.3-7.4-1.2c-1.3-3.4-4.3-7.4-2.5-10.2
				c2-3.1,6.3,0.4,9.6,0.3c1.1,0,2.3,0.2,3.4,0.3c0.4,0.4,0.8,0.8,1.2,1.1c0.2-0.2,0.4-0.4,0.5-0.7c-0.5-0.3-1-0.5-1.5-0.8
				c-1.1-2.2-3.7-1.9-5.5-3c3.8-2.1,9.4-1.9,17.3,2.3c5.9,3.1,12.2,2.5,18.2,3.8c6.2,1.3,10.8,6.5,18.3,6c-2.4,3-1,4.9-0.1,7.5
				c2.5,7.1,1.8,14.7-0.2,21.9c-0.8,2.9-3.5,2.7-5.9,2.3C303.5,367.8,299.3,366.5,295,366.7L295,366.7z"/>
			<path class="st7" d="M425.6,158c-36.3-5.3-71.4-15.6-108.7-23.7c9.3-2.7,17.2-4.2,25.5-2.6c22.3,4.3,44.2,10.1,66.1,15.8
				C415.5,149.4,420.6,153.4,425.6,158z"/>
			<path class="st7" d="M349.8,131.4c12.9-2.4,37.8,3,46.3,9.5C380.6,138.1,365.6,132.4,349.8,131.4z"/>
		</g>
	</g>
	<g>
		<polygon class="st8" points="1052.6,287.5 587.9,287.5 596.8,212.8 1061.4,212.8 		"/>
		<path class="st4" d="M604.5,281.8l-1.7,0.1l-1.2-0.5l-2.8,0.4l-1.9-0.1l-1.2-0.4l-0.5,0.2l-1.5-0.7l-0.9,0.1l0.1-1.1l-0.5-1.2
			l0.3-0.7l0.6-0.1l0.8-0.4l-0.4,0.1l-0.8-0.6l-0.4-0.1l0.9-0.4l-1,0.2l-0.1-0.8l0.8-0.5l0.4-2.5l0.4-1.2l1.5-1.6l2.5,0.2h1.7
			l0.7-0.6l1.7,0.7l0.8-0.3l2.1,0.2l2.6-0.6l0.4,0.2l-0.5-0.1l1-0.2l-0.3,0.8h0.1l-0.1,2.1l0.1,3.4l-2,4.1L604.5,281.8z
			 M593.7,275.4l0.5-0.1l-0.4-0.3l0,0.8l0.4-0.3L593.7,275.4z M639,281.4l-0.5,0.1l-2-0.5l-1.8,0.5l-0.6-0.2l-3.7,0.1l-1.7-0.6
			l-1.8-2.4l0.4-1.3l-0.3-1.2l-1.4-0.5l-0.8-2.6l-0.6-1.4l-0.6-2.7l0.7-2.3l0.1-1.1L624,264l-0.8-2.7l-0.4-2.1l-0.4-2l-1-0.9
			l-1.3-3.2l0.5-1.1l-0.5-1.9l-1.1-2.8l0-1.5l-0.9-1l-0.7-1.9l-1.5-1.8l0.3-1.5l-0.2-1.8l-1,1l-0.7,2.3l-0.4,0.6l0,2.3l-0.2,1.4
			l-0.7,2.1l-0.7,2.1l-0.3,1.4l-0.8,2.1l0.3,0.8l0,1.1l0.1,0.4l-1,0.3l0.9,0.3l-0.9,1.1l-0.3,0.3l-0.2,2.2l-0.1,1.9l0,0.5l0.4,2.1
			l-0.4,1.2l-1.3,2.2l-0.4,0.7l0-0.2l-0.1,0.3l-0.4-0.3l0.4-0.1l-1.2-0.5h-0.6l-1.5,0.7l-0.3-0.2l-1.7-0.5l-0.4-0.1l-0.3-0.4
			l-0.7,0.5l-1.5,0.6l-3.2,0.4l-1.5-1.2l0.4-1.9l1.3-2.2l0.1-2.2l-0.1-1.1l1-1.6l-0.4-1.9l1-1.2l-0.4-1.7l1-1.9l0.2-0.7l0.3-1.9
			l0.9-1.9l-0.8-1.2l0.7-3.1l1.1-1.5l0.2-1.1l-0.3-1.7l0.7-1.9l1.1-1.9l0.8-0.2l0,0.5l0.5-0.3l-0.1,0.7l0.5-0.4l1-0.2l2.3-0.9
			l1.5,0.5l1.4,0.2l1.8-0.4l2.1-0.2l2.2,0.1l2.7-0.5l2.2,0.1l1.4-1.1l-0.6-0.8l-2.1,1.1l-1-0.8l-0.6,0.4l-2.2-0.3l-1.5,0.3l-1.5-0.2
			l-1-0.1l-1.9,0.2l-0.8-0.7h-2.9l-0.6,0.2l-1.9-0.1l-0.8-0.5l0.9-3.3l-0.4-1.4l0.4-1.5l1-2l-0.1-2.5l0.6-2.6l1-1.8l0.5-1.3l0.7-1.9
			l1.5-0.2l0.8,0.4l3.7,0.2l2.1-0.5l1.7-0.2l1.9,0.5l-0.3,1.4l0.9,1.5l0.3,0.7l0.6,1.3l2,1.8l0.5,1.4l0.7,1.3l-0.8,1.6l1.7,1.5
			l0.8,0.4l-0.5,1.7l1.6,0.9l1.1,2.4l-0.7,1.2l1.4,1.6l0.5,1.8l-0.1,0.6l0.5,0.7l-0.3,1.6l0,0.5l0.4-0.2l-0.1-0.3l0.8,1.6l0.6,1.3
			l0.6,1.5l-0.7,1.2l0.1,0.4l0.9,1.8l0.6,0.9l1.1,2.1l-0.1-1.1l1.2-1.9l-0.2-1.3l0.7-1.1l0.6-1.7l0.2-3l0.6-1.8l-0.7-0.7l1.4-2.3
			l0.6-0.6l0.3-2.1l0.5-1.2l0.1-1.5l0.1-1.6l0.5-2.1h1l1.1,0.3l0.3-1.6h-0.2l-1,0.7l-0.8-0.9l-0.4-1l1-1.6l-0.3-1.7l1.6-2.1l2.3,0.2
			h1.9l0.9-1l3.1,0.3l0.2,0.3l3.2-0.6l0.6,0.4l0,0.4l0.7-0.8l-0.2,1.7l0.7,0.9l-0.9,0.6l0.2-0.2l0.2,1.9l-0.7,0.7L655,222l1,1.2
			l-0.4,0.2l-0.6-0.2l-1.3,0.2l-2.1,0.4h-1.7l-0.8-0.5l-1.3,0.6l-2.5-0.4l-0.9,1l0.3-0.1l0.5,1l2.5-0.9l0.2,0.8l2.3-0.1l2.6-1
			l0.5,0.5l1.7,0.2l0.2-0.2l-1.2,0.8l0.3,0.5l0.3,0.2l-0.4,0.9l-0.5,1.8l-0.9,1.7l-1.8-0.3L650,231l-2.5-0.4l0-0.2l-1.3,0.3
			l-3.3,0.6l-2.4-0.2l-0.7,0.3l-0.4,1.1l2-0.3l2.9,0.1l1.1-0.3l0.9,0.1l0.5,0.7h0.9l1.5-0.9l1.9,0.5l2.2-0.7l0.8,2.1l-1,2.8l-1,1.5
			l-0.7,2.4l-0.2,1.4l0.6,1.3l-0.8,1.8l0,2.8l-1.2,1.6l0.1,1l-1,2.2l0-0.3l-0.8,0.6l0.5-0.7l1.3,0.2l0.3,1l-1.6,2.4l0.4,1.3
			l-1.2,2.5l-1.6-0.7l-0.2,0.4l-2-0.4l-1.4,0.8l-1.4-0.6l-2.3,0.5l-0.8-0.4l-1.2,1l-0.5,0.1l0.7,0.3l1.9,0.5l1.9-0.1l0.7,0.3
			l3.9-0.7l1.4,0.1l0.6,1.1l0.2,1.3l-0.9,2.9l-1.4,0.9l-2.7-0.3l-1.3,0.5l-0.9-0.6l-1.7,0.7h-0.5l-2.4-0.6l-2.8,0.4l-1.1,0.1l0,1
			l1,0.9l1.9-0.9l1.3,0.5l1.8-0.4l2-0.4l1.9,0.6h2.1l1.8-1l0.5,1.3l-0.7,1.6l0.1,1.3l-0.2,1.2l-0.9,1.1l-2.4,0.1l-2-0.2l-2.4,0.9
			l-0.8-0.2l-2.9-0.8l-0.7,0.6l-1.6,0.5l-1.2-0.1l0.1,1.6l1-0.2l1.4,0.2l2.6-0.2h2.2l1.4-0.6l0.6,0.4l2.6-0.3l1.7,0.5l0.2,0.7
			l-0.8,1.9l-2,2L639,281.4z M600.1,278.4l-0.7-0.4l-1.1,0.1l-0.9-0.6h-1.2l-1,0.6l0.2-0.2l0.6,0.1l0.2,0.5l0.6-0.5l0,0.6l1.5-0.1
			l0.6-0.4L600.1,278.4z M598.6,272.8l0.8-0.3l-0.2-0.1l-0.3-0.5L598.6,272.8z M599.2,254.2l0.8,0.1l0.3-0.9l-0.6,0.1L599.2,254.2z
			 M600.3,272.7h0.3l0.2,0.6l0.4-0.3L600.3,272.7z M601.1,253.9l0.4-0.7l-1.1,0.7H601.1z M601.2,258.6l0.3-1l-0.6,0.1l0,0.8
			L601.2,258.6z M600.9,277.9l0.8,0.2l0.8,0.3l1-0.1l-0.4-0.7l-1.1-0.4L600.9,277.9z M601.4,255.1l0.3,0.2h-0.7L601.4,255.1z
			 M602.5,267.6l-0.8-0.1l0-0.5L602.5,267.6z M602.3,246.3l-0.3,0.4h0.2l0.9-0.2L602.3,246.3z M603.7,248.8l-0.4,0.3l-0.9,0.2
			l0.1,0.4l0.1-0.6L603.7,248.8z M603.6,237.7l-0.6-0.5h0.3L603.6,237.7z M604.4,245.9l0.2-1l1.2-0.9l-1.1-0.4l-0.3-0.8l-0.7,1
			l0.8,0.8l-1.1,0.8l-0.2,0.7l1.2,0.5L604.4,245.9z M604.6,248.2l-0.2,0.1l-0.3-0.7l-0.3,0.3L604.6,248.2z M604.4,240.2l-0.5,1
			l1.4-0.2l0.4-0.4l-1,0.1L604.4,240.2z M604.6,279l-0.5,1.2h1.1L604.6,279z M605.5,242.7l-0.7-0.2l1.2,0.6l0.1-0.3L605.5,242.7z
			 M606.6,229l-0.2-1.3l-1.3-0.2l1,0.2l0.3,0.9L606.6,229z M606.5,270.6l-1,0.6l0.4-0.9l0.4-0.3L606.5,270.6z M605.6,227l0.5-0.2
			l0.2-0.5h0.1L605.6,227z M605.8,257.6l0.8-1.3l-0.7-1l0,1.3l0.4,1.1L605.8,257.6z M606.4,226.4l0.9-0.2l-0.8-0.3l-0.2-0.3
			l-0.2,0.5l0.3-0.5L606.4,226.4z M606.8,252.5l0.8-0.1l-0.1-0.4l0.1,0.6L606.8,252.5z M609.9,229.4l0.7-0.9l-1.1-0.6l-1.2,0.7
			l1.4,0.1l-0.3,0.9l-1.3-0.8l-0.8,0.3l0,0.5l1.6,0.6l0.3-0.3L609.9,229.4z M607.8,229.2l1.1-0.2l-1-0.1L607.8,229.2z M611,230
			l0.2-1l-1.3-0.2L611,230z M610.5,216.1l-0.4,0.9l0.4-0.3h-0.4L610.5,216.1z M612.6,216.6l-1.5,0.2l0.7,1.1L612.6,216.6z
			 M611.8,216l0.2,0.3l1.1-0.2L611.8,216z M612.7,218.9l-0.3,0.6l0.1,0.3l0.7-0.9H612.7z M613.6,228.4l0.4,0.1l-0.6-0.4l-0.3,1.3
			L613.6,228.4z M619.2,226.7l0.2-1.3l-2,1.1L619.2,226.7z M619.1,225h0.2l-0.3,0.6l0-1L619.1,225z M623.2,241.7l0.6-0.3l-1.3-0.2
			l0.2,0.3L623.2,241.7z M623.5,222.9l-0.2,0.4l-0.7-0.2L623.5,222.9z M635.2,260.5l1-0.1h-1l-0.3-0.6l-1.4-0.1l-1.6,0.5h-1.4
			l-0.3-0.8l-1.4,0.2l-0.6,0.9l-1.3,0.9l2.1,0.1l1.8-0.3L635.2,260.5z M639,253.3l-0.1-1l-0.8,0.5l0,0.8L639,253.3z M638.7,239.3
			l0.5,1.2l0.4-0.8l0.6,0.8l3.2-0.7l1.1-0.4l0.4,0.5l-0.2-0.7l-0.5-0.2l-2.1-1l-1.9-0.1l-0.9,1.2L638.7,239.3z M642.2,229.5h-1
			l0.8-0.3l0.5,0.1l0-0.3L642.2,229.5z M644.1,216.8l-1.1-0.2l-0.4-1.3l0.3-1.3l0.5-1.8l0.3-0.9l1.3-0.2l0.8,0.2l2-0.9l1.1,0.7
			l0.5-0.2l2.1-0.4l1.7,0.3l1.1,0.2l1.7-0.9l0.1,0.8l2.1-0.4l0.1,1.9l-0.9,2l-0.4,0.9l0,0.9l-1.2,0.8l-0.4-0.3l-0.1-0.3l0.2-0.2H654
			l-1.1-0.5l-2.6,0.5l-1.6-0.1l-2.7,0.3L644.1,216.8z M645.9,238.8l-0.7,0.3l1.2,0.3l-0.1-0.6H645.9z M647.4,238.5l1.5,0.2l1.4,0.2
			l0.6-1.1l1.6-0.6l-2.1,0.2l-2.6,0.2L647.4,238.5z"/>
		<path class="st4" d="M719.6,262.5l-1.2,1.3l-1.5,2.4l-1.2,1.7l-0.6,1.9l-2.2,1.7l-1.8,0.5l-1.3,1.6l-1,1l-2.1,0.7l-2.7-0.5l-2.8,1
			l-1.2-0.2l-1.2,0.3l-1.8,0.7l-1.9-0.5l-0.5-0.3l-2.1,0.7l-0.8,0.9l2.4,0.3l4-0.4l0.5-0.1l1.3,0.6l1.9-0.7l2.5,0.3l1.5,0.3
			l-1.1,0.4l-2.5,1.6l-1.3,1.1l-3.6,1l-2.9,1l-1.6,0.8l-2.8,0.8l-3.6,0.1l-1.8-0.9l-3.2-0.3l-1.2-0.6l-2.5-1.1l-0.8-0.3l-2.4-0.2
			l-0.9-0.5l-1.3-0.9l-1.3-0.1l-1.8-2.3l-1.5-1.1l-2.3-0.6l-1.2-2l-0.4-1.2l-0.2-1.2l0.3,0.7l2.2-0.3l2.4-0.3l2.4,0.2l2.2-0.5
			l2.8,0.2l1.2-1.8l-1.3,0.8l-1.3,0.2l-1.8-0.5l-0.9,0.4l-0.5-1l-2.8,1.1l-0.9-0.6l-0.9,0.1l-2.1-0.4l0.6-0.3l0.2,0.3l-1-0.1
			l-0.2-0.3l-1.3,0.5l-0.6-0.1l-0.8-1l-0.3-2l-0.4-1.6l-0.2-1.2l0.1-0.4h0.3l-0.6,0.3l-0.3-0.9l-0.8-1.2l1-1.7l-0.5-1.3l-0.1-1
			l-0.1-1l-0.3-2l0.5,0.5l-0.6-0.6l0-1.3l1.3-0.3l-0.5-0.6l-0.8-0.2l1.7-2.4l-0.2-1.6l1-2l1.5-2.7l1.2-3.3l0.3-2.5l0.6-1.2l1.2-0.4
			l2,0.1l0.8-0.5l1.2,0.5l1.1,0.1h2.3h2.9l3.3-0.3l1.3-0.6l-0.4,1.4l-1.5,1.9l-1.2,2.1l-1.3,2.3l0.3,1.1l-1.4,1.7l-0.5,1.2l-0.8,1.3
			l0.4,1.2l-0.2,0.9l0.2,0.2l-0.8,0.3l-0.3,0.3l0.4,1.1l-0.3,1.4l-0.9,0.5l0.5-0.1l0.9-0.7l-0.3,0.1l0.3,0.2l0.4,0.8l-1.5,0.7
			l0.5,0.9l0.9,0.2l-0.6,0.7l0.4,0.5l0.4,0.4l0.6,0.6l0.5,1.3l-0.1,0.6l1.1,1.9l0.8,0.8l0.7,0.6l0.9,0.9l0.8,1.5l1.5-0.1l0.4,0.4
			l1.9,0.7l0.5,0.8l1.7,0.4l2.3-0.1l1.1,0.6l2.3-0.2l1.3-0.6l1.7-0.6l3.2-1.3l1.2-0.7l0.8-1l0.6-0.6l1.3-1.4l2.2,0.5l2.9-1.1
			l0.9-0.1l0.5,0.4l2,0.4l3.1-0.6l1,0.2l1.8-0.7l0.3,0.5l2.3-0.2L719.6,262.5z M664.5,252.4l-1,0.3l0.7-0.3l-1-0.1L664.5,252.4z
			 M663.8,268.9l-0.5-0.5l0.3,0.1l-0.3,0.5L663.8,268.9z M663.9,256.8l0.5-1.1l-0.4,0.5l0.2,0.3L664,256L663.9,256.8z M666.6,265.4
			l-0.2-0.3l-1.5-1.1l-0.8,0.4l0.7,0.8h0.5l0.3,0.3L666.6,265.4z M664.4,254.2l1-0.8l-0.3,0.5L664.4,254.2z M664.8,252.1h-0.4
			l0.9,0.2L664.8,252.1z M666.4,273.8l0.6-0.1l-1-0.2l-0.7-0.1l0.1,0.2l0.5-0.3L666.4,273.8z M666.4,246.2l0.1-0.5l-0.4,0.3
			l-0.4-0.2L666.4,246.2z M666.9,248.2l-0.3-0.5l-0.6,0.6l-0.1,0.1h0.5L666.9,248.2z M666.3,264.3l0.3-0.2l-0.5-0.4l0.5,0.4
			L666.3,264.3z M667,238l-0.4-0.5l0.2-0.2L667,238z M667.3,247.7l-0.4-0.8l0,0.4h0.8L667.3,247.7z M668.2,243l-0.9-0.2l-0.2,0.3
			l0.2,1.3l-0.1,0.4l0.7,0.3l-0.8,1l1.4,0.2l-0.5-1.2l0.6-1.5L668.2,243z M669,230.8l1.1-0.7l-1-1.2l0.2-0.1l1.6-2l1.9-2.4l0.4-1.1
			l1.7-1.7l0.2-2.1l2-1l0.8-1.4l1.5-0.4l1.4-0.9l1.7-0.9l0.6-0.5l2.2-1.6l2.1-0.1l1.2-0.9l3-1.3l0.6-0.1l2-0.5l1.2-0.3l3.9-0.5
			l1.7-0.5l2.4,0.9l1.4-0.3l1.6,0.6l2.1,0.3l1.3,0.7l2.2,1.6l0.4,0.4l2.1,0.3l1.9,1.6l0,1.5l1.8,0.7l1.1,0.7l-1,0.2l-1.2,0.7
			l-1.8-0.5l-1.7,0.1h-1h-3l-1.9-0.1h-2.5l-2.3,0.2l-1.7,0.5l-0.1,0.4l0.4,0.7l0.8-0.3l1.4,0.4l1.7-0.8h0.5l2,0.1l1.1-0.8l2.9,0.7
			l1.5-0.3l1.8-0.3l1.8-0.4l1.7,0.7l1.3,0.6l2.3,1.6l1.3,1.8l-1.5,1.8l-1,0.2l-2.7,0.2l-1.4,0.4h-1.5l-0.9-0.3h-2.1l-1.3,0.1
			l-1.7-0.2l-1.1,0.2l-2.3,0.3l-0.9,0.8l0.9,0.5l0.5,0.1l0.7,0.2l1.6-0.1l2-0.3l2,0.2l1.6-0.8l1.9,0.2l2.9-0.5l1.5,0.2h1.9l2.4,1.1
			l-0.1,1.4l0.4,0.7l0,0.7l-0.7,0.5l0.1,0.7l0.6,1.1l0.9,1.7l0.1,1.3l0,0.6l0.7,2.5l-0.5,2.2l-0.3,0.8l-0.3,2.1l-1,2.8l0.2,1
			l-0.8,3.5l-0.1,1.8l-0.7,0.2l0.1,1.4l-1,2.5l-1.2,3.2l-1.7,0.3l-1,0.3l-0.8-1.1l-0.7,0.2l0.5,0.7l-0.4-0.5l0.5,0.9l-1.5-0.4
			l-0.9,0.4l-1.5-0.2l-3.3,0.4l-2,0.3l-1,0.4h-0.6l-2.4-0.7l-0.3-0.2l0.4,0.2l1.8-1.8l0.6-1.9l0.8-2.2l0.9-1.3l1.4-1.3l0.5-2.1
			l0.4-3l-0.4-1.3l0-1.3l1.3-0.4l-1-1.7l0.7-0.6l-0.7-0.9l0.6-1H711l1.2-0.3l0.3-0.4l-0.4,0.2l-0.9-0.1l-0.8-0.6l0.6-0.3l-0.8-0.5
			l0.6-0.1l-0.5-0.1l-0.1-1.1l-0.1-2l1.1-0.4l1-0.1l3.1-0.5l0.6,0.2h1.6l2.1-0.2l2.2-1.1l-0.2-0.3l-1.5-0.5l-4.1,0.7l-0.3-0.4
			l-1.4,0.7l-2.8-0.5l-2.1,0.4l-1.8-1l-1.5-1.2l-2.3-1.2l-1.7-1.1l-1-1.1l-1-0.3l-0.5,0.5l2.2-0.4l1.6-0.3l1.1-1l-1.6,0.8l0.6-0.1
			l-1.4-0.6l-1.4-0.4l-0.4,0.2l-1.8-0.1l-0.8,0.5l-1.4-0.1l-0.1,1l-1.1,0.1h-0.3h-1.2l0-1l0.6-0.2l-1.8,0.2l-4.3,0.3l-0.4-0.2
			l-1.1,1.6l1.2,0.1l1.5-0.5l1.4,1l0.2-0.8l-0.3,1.1l-0.7,0.2l-1.6,0.3l-0.9,1l-1,0.2l-1.2,0.6l-2.2,1.5l-0.6,1.9l-0.8,0.2l-0.7-0.8
			l-0.8,0.3l-1.5,0.2h-1.9l-0.7-0.7l-2.1,0.1l-0.8,0.1l-2.5-0.4l-1.5,0.1l-1.1,0.6l-0.6-0.9l1.3-2.1L669,230.8z M667.6,240.9
			l0.1,0.6l-0.3-0.2l1-0.5l-0.3-0.4L667.6,240.9z M669.3,242.1l-1.2,1l1.3-0.2l-0.6-0.4L669.3,242.1z M669.4,266.2l0.3-0.5l-1.3,0.3
			l0-0.2h0.5L669.4,266.2z M669,255.4l1.2-1l-0.7-0.6l-0.7,1.5l-0.2,0.6L669,255.4z M669.4,266.7l0.5-0.2l-1.1,0.7l1.1,0.5l-0.5-0.2
			L669.4,266.7z M669.1,265.4l0.3-0.3l0.8-0.4h0.5L669.1,265.4z M670.7,250.6l-1.3,0.5l1.3,0.1l0-0.2l-1-0.3L670.7,250.6z
			 M671,231.1l-0.5,0.7l0.4-0.6l1.1,0.6l0-0.8l0.9-0.7l-0.4,0.2l0.5,1l1.2-0.9l-0.9-0.8l-2.1-0.2l0.6,0.3l0,0.8l-1.2-0.1L671,231.1z
			 M671.5,229.9l0.2,0.6l0.3-0.4L671.5,229.9z M673.9,260.2l0.2-0.8l0.1,0.2l-1,0.5L673.9,260.2z M675.2,221.3l-0.2,0.8h0.5h-0.2
			l0.2-0.5L675.2,221.3z M675.5,230.1h0.3l0.4,0.4l-0.5-0.6L675.5,230.1z M680.3,227.8l0.5,0.5l0.7-0.6l-1.2-0.2L680.3,227.8z
			 M680.9,226.6l0.6,1l-0.7-0.3l-0.2-0.6L680.9,226.6z M684.1,225l0.6,0.2l-0.3,0.3L684.1,225z M686.4,224.6l-0.3-0.6l0.4-0.9
			l-0.6,0.3l0.4,0.4l0-0.6l-1.4,0.5l1.1,0.7l0.2-0.3L686.4,224.6z M686,219.5l0.6,1.1l-0.8-0.9L686,219.5z M687.4,218.9l-0.9,1.1
			l0.4,0.1l-0.2-0.8L687.4,218.9z M686.7,220.9l0.3,0.5l-0.5-0.5l0.5-0.7L686.7,220.9z M687.8,220.4l-0.3,0.6l0.2,0.3l1-0.6
			L687.8,220.4z M688.2,218.3l0-0.2l0.6-0.6l-0.7,0.1L688.2,218.3z M689.3,219.5l-0.5,0.4l1-0.5l0.4-0.2L689.3,219.5z M691.4,217
			l0.2,0.2l1.2-0.1l-0.2-0.7L691.4,217z M693.3,216.8l0.5,0.2l0.7-0.2l-1-0.4l0.9,0.7l-0.3-0.9L693.3,216.8z M713.8,268.3l-0.1-0.9
			l-1.7,0.5L709,268l-1.2-0.3l-0.4,0.1l-3.2,0.8l-1.7-0.7l-1.4,0.5l-1.7-0.2l-2.7,0.7l-2.4-0.4l-0.8,1.1h-0.1l1.5,0.3l2.8-0.3
			l1.6,0.1h2.8l1.6,0.4l1.2-0.4l2.2-0.3l1.9-0.2l2.2-0.4l1,0.6L713.8,268.3z M713,254.5l-1.6-0.7l-1.3,0.5l-1-0.2l0.8,0.1l1.2,0.5
			L713,254.5z M716.6,260l0.3-0.9l-0.1,0.7l0.4,0.1L716.6,260z M719.1,252.4l-0.3,0.4l-1.3,0.2l-0.7,0.7l1.7,0.2h1.4l0.9-1.1l-1.3-1
			L719.1,252.4z M718,256.4l-0.9,0.3l1-0.1h-0.7L718,256.4z M717.6,261.8l0.4,0.5l0.9-0.3l0.5-0.6L717.6,261.8z M717.7,257.5
			l0.7,0.3l-0.5-0.3H717.7z M721.1,253.9l-1.1,0.5l-0.6,0.1l1.2,0.2L721.1,253.9z M720.1,259.6l0.7-0.3l0.4-1.4l-0.6,0.1l0,0.6
			l-0.1,0.9L720.1,259.6z M721.5,257.4l0.1-0.6l-0.4,0.4l0.1-0.1L721.5,257.4z M722.8,254l-0.6,0.3l-0.6,0.6l0.5,0.1L722.8,254
			L722.8,254z M722.7,251.4l0.2-0.6L722.7,251.4h-0.5H722.7z M723,238.4l0.8,0.4h0.3l-0.6-0.9l0.9-0.3L723,238.4z M724.4,239.5
			l0.6-0.1l-0.1-0.9l-0.6,1.1L724.4,239.5z"/>
		<path class="st4" d="M772.4,278.3l-3,1.1l-2.5,1.3l-1.1-0.5l-1.7,0.6l-1.5-0.4l-2.4,1.2l-2.4-0.7l-2.6,0.9l-1.7,0.5l-1.1-0.3
			l0.2-2.3l-1.1-3.6l-0.4-2.8l0.2-1.7l-0.6-0.2l-0.9-0.1l0.8,0.6l0.5-2.1l-1.1-1l-0.4-1.3l1-0.4l-0.9,0.1l-0.6-0.1l-0.3-2.4
			l-0.9-2.5l0.4-1.3l0.2-1.8l-0.1-1.4l0.1-3.4l-0.2-0.6l-0.4-2.3l-0.1-1l-0.5-1.3l-0.2-0.7l-0.3-1.4l-0.8-2.3l0.6-2.9l0.3-1.4
			l-0.5-1.8l-1.4-0.9l0.4-1l-1-1.8l0-1.3l-0.1,0.7l0.4-0.4l-0.7-0.2l2,0.4l1.6-0.4l2.5-0.2l1.7-0.3l2.2,0.2l1.9-0.4l1.6-1l-0.2,0.1
			l-2.6-0.5l-0.1,0.3h-0.5l-1.5-0.5l-2,0.3l-1.1-0.7l-1.3,0.5l-1.6-0.3l-1.3,0.4l-1.2-1.3l0.1-2.3l-1.3-2.2l0.2-1.9l0.7-1.5
			l-1.3-1.5l-0.9-1.9l-0.2-2.6l0.3-2.3l2.8-1.4l1.7,1l0.8,0.1l0.8-0.3h0.4l1.7-0.6l2.5,0.1l2.1,0.7l2,0.5l1.9,1.2l-0.8,2.8l0,1.9
			l-0.6,1.7l1.2,1.9l-0.2,1.1l0.7,1.8l-0.5,0.8l1.2,1.9l0.1,1.7l-0.1,1.4l0.4,0.6l0.1,2.9l1.8,1l0.2,1.6l-0.3,1.3l1,0.8l-0.8,1.8
			l0.2,0.3l-0.3,1.8l0.5,0.3l1.3,0.7l-0.3,1l-0.8,0.7l0.5,1l0.1,0.5l0.7,0.8l-0.3,1.3l0.7,1.6l-0.6,0.7l1.1,0.9l-0.1,2.3l1.4,1.2
			l0.4,1.5l-1.1-0.1l0.3,0.3l-1.2-0.4l-2.1,0.9l0.3,1.2l1.3-0.6l0.7,0.5l1-0.2l1,1.5l-0.6,1.1l1.2,0.2l2.4-2.2l-0.2-0.5l1.5-0.5
			l-0.2-0.5l-0.1-0.4l0-1.4l0.6-1.7l1.9-1.8l0.9-2.5l0.7-1.4l1.2-1.5l-0.3-1.2l0.9-1.5l1.4-3.3l1.7-3l1.2-1.2l0.5-2.2l0.4-1.2l2-2.6
			l2.3-1.4l3.3-0.1l1.2,0.4l1-0.5h1.7l1.6-0.2l0.7-1.4l-2.5,0.1l-2.6,0.1h-1H787l-0.8,0.2l-0.7-1.4l0.5-0.3l1.2-2l0.5-1l2-1l1.7-0.1
			l2-0.6l2,0.4l1.3-0.4l1.3-0.5l2.2,0.8l0.9-0.3l1.9-1l0.7-0.2l1-1l-2.1,0.7l-0.8,0.3h-2.7h-1.5l-0.7,0.2l-1.3-0.1l-1.8,0.4
			l-2.8-0.2l0.2-0.7l0.9-1.4l1.3-1.9l0.4-0.8l0.9-1.5l1.9-2l0.2-1.5l3.5-0.4l0.7-0.7l3.8,0.5h0.9l0.9-0.4l2.2,0.2l1,0.5l-1-0.4
			l1.1,0.8l-0.9,0.1h0.8l-0.3,0.2l-0.3,0.8l-2.6-0.3l0.1-0.2l-2.3,1.1l0.3-0.4l1.3,1.2l2.4-0.5l0.1,1.6l-1.3,0.7l0.4,0.2l-1,1.8
			l-0.5,1.5l-2.1,3.2l-1.1,1.4l-1.3,1.7l-0.5,0.8l-1.7,3.1l-0.6,0.6l-1.1,1l1.4-1.1l-1.1-0.4l-0.4,0.4l-0.7,1.3l0.1,2.9l-1,1.8
			l-1.1,1.5l-1.6,1.1l-1,1.1l-1,1.5l-1.7,2l-0.7,1.2l-0.2,2.8l-2,2.6l-1.3,0.6l-2.6,0.2l-0.8-0.7l1.4,0.9l1.1-0.2l1.4,0.1l-0.2,0.7
			l-1.5,2.4l-0.2,1.2l-2.3,1.9l-0.8,0.5h-1.5l-1.4-0.4l-1.8,0.3l0-0.3l-1.6-0.2l0.8-0.2l0.1,0.2l-0.7-0.1l-0.2-0.3l1,0.9h-1.5
			l-2,0.3l-0.4-0.2l-1,1l0.5,0.5l2.2-0.3l2.1,0.2l1.5-0.6l1.9,0.5l2.3-0.4l1.6,0.6l-0.9,0.7l-0.1,1.6l-0.8,1.5l-0.3,0.9l-1.5,1.1
			l-2.5-0.2l-0.8-0.6l-1,0.5l-1.6-0.7l0.4,0.2l-1.9,0.6l-2.8,0.1l-1.6-0.1l-1.5,1l-0.3,1.1h2.4l3.4-0.8l1.2-0.3l2.5,0.8l1.4-0.6
			l0.9,0.1l0.6,0.1l-0.4,1l0,1.6l-1.1,1.6l-0.5,1l-2,0.3l-0.9,0.1l-1.4,0.3l-1.9,0.9l-0.9-0.5l-1.1-0.7l-2,0.7l-0.5,0.7l0.3,1h0.5
			h1.3l3.8-0.3l1.5-0.1l0.5-0.1l0.4,1.2h-1l-0.5,0.7l1.2,0.3L772.4,278.3z M743,215.6l0.1-0.8l-1.2-0.5l0.8,0.8L743,215.6z
			 M744.2,221l-0.7,0.2l-1,0.3l0.1,0.7L744.2,221z M743.1,226.8l1.2,0.2l-0.5-0.3L743.1,226.8z M743.9,224.6l0.5-1.2l0.3,0.1
			l-0.8-0.3l-0.3,0.6L743.9,224.6z M744.2,228.6h0.4l-0.1-0.6L744.2,228.6z M776.2,264l0.6,0.2l-0.6,0.1l0.9-0.8l0.1,0.1h-0.3
			l-1-0.5L776.2,264z M776.8,250.2h0.5l-0.4,0.9l0.4-0.9H776.8z M777.1,255.6l1.4-0.4l-0.8,0.3l0.1,0.3L777.1,255.6z M781.7,238.4
			l1.6-0.1l1.3-0.4l1.9-0.4H784l-1.4-0.5L781.7,238.4z M784.9,246.3l-0.1,0.5l0.6,0.3l-0.7-0.6L784.9,246.3z M797.7,224.8l0.2,0.1
			l-0.5-0.1l0.3-0.8L797.7,224.8z M797.9,229.2l0.1,0.2l1-0.8L797.9,229.2z M800.2,215.8l1.4-1.1H800l0.2,0.3h-0.7l-1.3,0.1l0.7,0.2
			L800.2,215.8z M802.3,218.5l1.3-0.9l-0.3-0.1h-1.9L802.3,218.5z M804,215.2l-1,0.1l0.3-0.1l-0.3,0.5L804,215.2z M803.8,215.8
			l-0.1,0.7l0.5-0.4h-0.2l-0.8,0.3L803.8,215.8z M804.4,221.3h-1.1l0.2-0.2h0.7L804.4,221.3z"/>
		<path class="st4" d="M833.8,225.6l-1.1,1.7l0.5,1.5l-0.2,1.7l-0.5,2.1l-1.1,1.8l0.8,0.7l-0.2,1.7l-0.9,3.5l-0.6,3.2l-0.9,0.7
			l-0.9,1.5l-0.3,3.2l0.1,2.1l-1.2,1.2l0.2,3l-0.5,1.2l-1.5,2.1l0.6,2.3l-0.3,1.8l-1.5,3.1l0,0.9l-0.5,1.6l-1.1,1.2l0.4,1.9l-0.6,2
			l-0.3,2.2l-0.4,1.5l-0.3,1.8l-0.7,1.5l-0.1,1l-1.7,1.4l-3.3-0.2l-2.4,0.5l-1.6-0.4l-1.7-0.2l-2.2,0.7l-1.3-0.7l-1.4-0.4l-0.6-2.1
			l0.7-2l0.4-3.1l1.3-1.2l0.1-1.6l0.8-1.1l2.2-0.2l1.9-0.2h2.2l1.2-0.2l2.4,0.1l3.4-0.3l1.4-1.6l-0.8-0.1L819,269l-0.4,0.4l-0.7-0.7
			l-1.5,0.3l-2.8,0.6l-0.7-0.8l-0.5-0.1l-2.6,0.1l-1.4-0.4l-0.4-0.1l0.2-0.4l-0.4-0.1l-0.1-2.9l1.4-0.9l0.5-1.6l-0.4-1.8l1.1-1.6
			l-0.2-2.9l0.7-1.8l1.5-3.4l-0.1-1.3l1-2.3l-1-1.1l0.7-1.5l0-2.9l0.9-2.2l0.4-1.6l0.2-1.6l0.6-1.2l1-0.7h1.6l1.8-0.4h2.4l0.9,0.2
			l2.7-0.4l2.9-0.2l1.4-0.8l-1.4-0.9l-1.2,0.4l-0.9,0.2l-0.8,0.3l-0.9,0.1l-2.4,0.4l-1.3-1.4l-1.7,0.1l-1.4,0.2l-1.6-0.1H816
			l-0.1-1.4l0.6-2.2l-0.5-0.9l0.1-1.5l0.9-3.5l0.8-1.8l-0.5-1.4l1.5-1.1l-0.4-1.1l-0.3-1.5l0.4-1.9l1.3-0.8l0.4-0.9l1.5,1.2l0.1-0.6
			l1.7-0.5l2.3-0.1l0.3,0.3l2.1,0.4h1.6l1.2-0.9l1.7,0.6l2.8-0.7l1.1,0.6l-0.2,1.3l0.3,1.2l-0.4,1.7l-0.9,2l-0.5,1.2l-1.1,1.8
			l0.7,1.8l-0.6,1l-1.6,0.5l0.9,1.1L833.8,225.6z M817.2,250.8l-0.7-0.8l0.4,0.1l0.7,0.4L817.2,250.8z M817,231.1l0-1l-0.4,0.6
			L817,231.1z M820,229.2l-0.6-0.7l0.3-0.2l-0.8-0.3l-0.9,1l-0.4-0.1l0.9,0.9l1,0.3l-0.3-0.4L820,229.2z M819.4,223.9l0.8-0.6
			l-0.6,1.3l1.6-0.3L819.4,223.9z M819.7,224.6l0.5,0.8l0.5,0.2l-0.4-0.4L819.7,224.6z M821.6,225.8l0.5-0.3l-0.3,0.1l-1,0.7
			L821.6,225.8z M821,225.3l0.1-0.7l0.3,0.2L821,225.3z M821.6,221.9l0.3-0.3L821.6,221.9z M823.1,223.1l0,0.2l-0.4,0.1L823.1,223.1
			z M824.2,241.5l-0.6,0.3l1-0.5l-0.2,0.4L824.2,241.5z M825.8,247.6l-0.5-0.4l0,0.2l0.1-1.5l-0.3,0.5l0.4,0.1L825.8,247.6z
			 M826.4,220.4l-0.7,0.3l1-0.5l-1,0.8L826.4,220.4z M827.1,238.1l0.1,0.3l-1,0.8l0.9,0.6l-0.9-0.6L827.1,238.1z M827.8,220.5
			l1.4-0.5l-0.9,0.8l0.5-0.9l0.4,0.5L827.8,220.5z M829.4,231.8l-1.5-0.1l0.6,0.1H829.4z"/>
		<path class="st4" d="M912.4,265.4l-0.1,1.4l-1.1,1.3l-1.5,1.1l-1,1.6l-2.9,1.5l-0.8,0.9l-0.3,0.6l-2.5-0.2l-2.4,0.5l-2.7,0.1
			l-2.1,0.5l-1.3-0.2l-0.4,0.6l-2.4-1.1l-0.9-0.2l-1.5,0.6l0.1,0.2l-1.1,1.8l2.8-0.3l3-0.2l1.2-0.5l2.1,0.8l0.4-0.2l5-0.4l0.2,0.6
			l-1.7,1.1l-1.7,1l-1.4,0.1l-0.7,0.5l-2.7,1.2l-1.9,0.7l-2.7,1.3l-1.6,0.2h-1.2l-1.8-0.1l-1.8,0.4l-1.8-0.7l-3.1,0.6l-1.2-0.4
			l-1.2,0.2l-1.5-0.6l-3.7-0.6l-0.9-0.6l-1-0.9l-1-1.1l-1.8-1.7l-1.5-0.7l0.1-1.5l-0.5-1.2l-2.5-1.7l-0.4-1.9l1.7,0.1l2.5,0.5
			l0.8-0.4l3-0.6l2.2,0.5l1.4-2l-1.4,0.5l-1,0.3l-1.3-0.4h-1.3l-0.5-0.2l-2.4,0.7l-0.8-1.3l-1.1,0.8l-1.3-0.2l0.7-0.8l0.1-1.9
			l-0.3-2.2l-0.4-1.9l1.2,0.1h0.1l-0.1-0.7l-0.1-0.2l2.7-0.6l1.7,0.8l0.8,0.3l-0.6,1.3l-0.2,0.7l0.3,1.1l1.9-1l1.3-1.8l-1.5-1.5
			l1,0.2l2.9-0.4l1-0.5h1.3l1.4-0.6l1.3,1.6l-0.7,1.7l1.6,0.8l1.2,2.1l2.1,0.3l0.9,1.4l-0.4-0.8l0.5-0.3l1.2,1.1l1.6,0.7l0.4,0.4
			l1.2,1h1.5h1.5l2.9-0.2l1.7,0.4l2.2-0.5l1.9,0.1l1.1,0.1h2.5l1.4-0.7l1.4-0.4l1.9,0.2l1.6-0.5l1.1-0.8l-2.4-0.3l-3.4,0.9l-1.5-0.3
			l-2.7,0.8l-2-0.4l-1.3-0.2l-1.4,0.5l-0.5-0.4l-2.7,0.3l0.6-0.2l2.1-1.7l1.1-2.5l1.9-1.7l1.5,0.5l2.7-0.5l0.6-0.3h1.1l2.7-0.4
			l2,0.1h0.9l1.3-0.5l1.8,0.3l1-0.1l0.5,1.9L912.4,265.4z M865.7,273.9l-1.1,0.7l0.2,0.3L865.7,273.9z M865.8,264.7l0.3-1.2l0.2,1.1
			l-0.7,0.4L865.8,264.7z M867.3,267.3l0.7,0.2h-0.9l-0.5,0.2l-0.1,0.5L867.3,267.3z M868.9,266L868.9,266l-0.4-0.1l-0.7,0.6
			L868.9,266z M868.8,233.2l0.3-0.2l-0.2-0.3l1.3-2.5l0.8-2.6l1.8-2.5l0.9-1.5l2.4-1.8l2.1-1.9l0.8-0.6l1.1-0.6l2.8-1.4l0.8-0.8
			l1.9-0.5l1.7-1.2l0.7-0.7l3.2-1.2l2.6-0.4l1.8-0.4l1,0.4l1.1-0.4l0.8,0.7l2-0.2l3,0.4l1.4,0.1l0.8,1l1.4,0.3l2.6,1.6l-0.1,1h-2.5
			l-1.4-0.1l0-0.5l-1.2,0.3l-1.2,0.6l-2.3,0.1h-1.7l-1.6,0.4l0.4-0.2l-1,0.1l-0.5,0.5l0.2,0.9l0.3-0.7l0.9,0.1l-0.3,0.7l1.5,0.4
			l0.4-0.2L899,219l0.6,0.1l1.5-0.5l-1.3,0.6l1.3-0.6h0.1l-0.5,0.9l1.7-0.2l0-0.3l1.3-1.2l1.1,0.4l2.6-0.8l2.4,0.8l1.2-0.7l1,0.4
			l-0.2,0.9l1.6-0.4l0.5,0.8l1.3,0.4l1,1.5l0.9,1.6l1.2,0.3l-1.3,0.7l-0.3,0.6l-3.1,0.2l-1.6-0.1l-2.7,0.3l-1.5-0.3l-0.7,0.4h-2.4
			l-2.2-0.4l-0.6,0.7l-0.9,0.3l0.8,0.7l2,0.2l0.6-0.1l1.6-0.6l3,0.4l1.7-0.5l0.6,0.4l2.5-0.4l2.7-0.5l1.9-0.2l1.6,0.8l0.6,2.8
			l0.3,1.2l-0.4,1.7l-0.1,1.5l-0.4,0.9l-1.2,0.4l-1.3,1.1l-2.9-0.2l0.3-0.5l0.6-0.9l-0.5-0.8l-0.3,1.1l-1.2,1.2l-1.6,0.2l-1.8-0.5
			l-0.4,0.3l-1.6,0.7l-3.6-0.8l-2.1-0.2l-0.1-0.3l-0.8-0.1l0.6-1.5l-0.4-0.2l1.4-0.6l1.1,1.5l1.1-0.4l1.8,0.4l0.5-0.8l2.7,0.3
			l1.5-0.8l1.7,0.3l1.3,0.2l2.7-0.8l0.1-0.6l-2.3-0.2l-3,0.2l-2.3-0.1l-2.6-0.1l-1.7,0.3l-1.1,0.4l-1.9-0.2l-2.1-0.5l-1.1,0.2
			l-2.9-1.1l-2.8,0.4l-0.7,0.3l-2.5,0.3l-0.4,0.6l-1.3-1.1l-0.6,1.3l-0.9,1l-0.5,2.2l-0.6,0.7l1.1,0.8l0.6,0.8l1.4,1l1.3,0.5
			l0.1,0.4l0.3,0.4l2.6,0.4l2.1,1.2l2.7-0.2l0.5-0.4l1.7,0.9l1.9,1.6h1.5l0.6,0.8h1.6l0.9-0.1l1.6,0.4l1.8,1.4l2.7,1.5l-0.2,0.9
			l0,0.5l1,1.4l0.6,1.1l-1.4,0.6l-0.3-0.3l-0.7,0.7l1.1,0.4l2,1.5l-1.1,2.8l-0.8,1.8l-1.5,0.1l-1.7,0.5l-0.9-0.4l-3,0.6h-1.2
			l-2.3-0.1l0.1,0.1l-2,0.5h-1.5l-1.1-0.6l-1.1-0.6l0.2,0.1l-0.3-1.1l-2.3-1.4l-0.5-0.3l-1.9-0.6l-0.8,0.3l-1.8-0.6l-2.8-0.6
			l-1.2-0.2l-1.7-0.9l-1.5-0.5h-2.4l-2.1-1.7l-2.7-1.7l-1-0.7l-0.5-0.2l-2-2.2l-1.6-1.9l-0.2-0.6l0-1.2l-1.3-1l-0.3-1.2l0.1-3l0-1.5
			l-0.1-0.4l0.2,1.3l0.8,0.4l-0.1-1.9l1.3-0.4l1.5-0.7l1.8,0.7l1.9-0.4l3.2-0.5l1.6-1.4l-1.5,0.3l-1.6,0.6l-1.2-0.7l-0.9,0.1
			l-1.2-0.3l-2,0.1h-0.4l-1.2-0.1l-0.3,0.3l-0.4-1.4l0.7,0.5L868.8,233.2z M869.2,234.7l0.4-0.1l-0.7,0.8L869.2,234.7z M877.4,238.6
			l0.3-1.4l-1.3-0.4l0.9-0.3l-1.7-0.7l-1.9-0.3l1,0.9l-0.6,1.1l-0.8,0.6l-1.7-0.2l-0.1,0.7l1.2,0.6h2l0.5-1.3l0.8-0.9l0.6-0.3
			l-0.3,0.5L877.4,238.6z M872.8,279.9l0.9-1.3l-0.2-1.5l0.1,1.1l-1.1,1.9L872.8,279.9z M873.3,237.5l1-0.2l-0.1-0.7l-1-0.2
			L873.3,237.5z M874,271.6l0,0.8l-0.2-0.5l-0.1-0.2l-0.3-0.3L874,271.6z M877.9,222.1l0.6,1l0.3-1.2l0.3,0.4L877.9,222.1z
			 M880.8,280.1l0.1-1.6l-1.4,1.8L880.8,280.1z M880.1,276.1l0,0.7l-0.3-0.3l0.9-1.9l0.9-2.1l0.5-1.9l-1.2,0.3l0.6,0.1l-0.5,0.9
			l-1.3,1.9L880.1,276.1z M881.3,249.9h-1l0.2,0.3l0.1,0.7L881.3,249.9z M881.3,235.2l-0.4,1.4l0.1-0.5l1-0.5L881.3,235.2z
			 M883.5,225.3l-0.4,1l0.6,0.4l1.9,0.2l0.5,0.1h2.1l1.4-1l0.3-1.1l-0.2,0.5l-1.8,0.3l-2.2-0.1l-2.1,0.4L883.5,225.3z M890.3,229.5
			l-1,0.6l0.6,0.4l0.1-0.6L890.3,229.5z M895.2,225.3l-1.9-0.5l-1.6,0.7l0.1,0.6l1.5,0.7l1.1-0.7l0.7,0.2l0.3-0.2l-0.7,0.8l0.2-0.1
			l1.5-1l0.9,0.8l1.9-0.1l1.4-1l-0.9-0.6h-1l-0.2-1.4l-0.9,1l0.1,0.2l-0.7,0.2l-0.6-0.3l-0.8,0.9L895.2,225.3z M900.3,217.4
			l-0.8-1.6l-1.6,1.5l0.9,0.4L900.3,217.4z M898.3,224.9l0.8,0.7l-0.2-0.5l-0.6-0.6L898.3,224.9z M900.9,214l-0.2,0.1l1.1-0.5
			l-0.2-0.2L900.9,214z M903.8,216.4l0.3-0.3l0.2-0.2l-0.5-0.6L903.8,216.4z M904.4,252.6l1.8,0.2l0.3,0.1l1.6,0.3l-0.4-0.9l-2.4,1
			L904.4,252.6z M907.1,229.8h0.4l0.4,0.1l0.8,0.7l0.2-1.7l0.4-0.3l-1,0.6L907.1,229.8z M909.2,247.3l-1.3,1.5h1.5l0.5,0.2l-0.7-0.4
			l-0.8-0.8L909.2,247.3z M912.1,226.8l-0.2,1.1l1.3-0.6L912.1,226.8z"/>
		<path class="st4" d="M983.1,279.6l-1,0.5l-0.8,0.3l1.3-0.4l-1.4-0.4l-0.9-0.2l1,0.8l-0.3-0.3l-1.2,1h-1l-1.5-0.3l-1-0.8l-2.1,0.9
			l-2.1,0.4l-1.2-0.3l-0.7,0.1l-1.5,0.3l-0.6-0.4l-1.5-2l-0.2-2.2l0.1-1.8l2.5-0.3l1.7,0.6l1-0.5l2.7-0.4l0.7-0.2l-0.5-0.3l-0.6-0.5
			l-0.6,1l-0.5-1.2l-1.8,0.6l-1.2,0.3l-1-0.5l-1.1-0.9l-0.3-2.5l-2.9-0.4l-1.1-0.4l-1.7-0.4l-0.1,0.2l-4,0.6l-0.7-0.2l-1.8,0.5
			l-1.5-0.8h-1.9l-2.8,0.6l-1.5-0.2h-2l-1.2-0.2l-1.8,0.4l-1.8,0.6l-2.2-0.5l-1.8,0.3l-3.5,1.1l-1.2,2.4l-0.8,1.4l-1.7,1.5l-0.4,1.7
			l-1.8,2.2l-1.9,1.7l-1.7,0.7l-1.2-0.3l-2.9-0.2l-3.3,1l-2.9-0.2l0.5-1.2l0.8,0.4l-1.2,0.1h-0.4l1.1-0.6l0.1-1.2l0.1-2.4l1.4-0.8
			l0.4-0.5l0.4-1.8l0.9-1.5l1.1-2.7l1.8-2.1l0.4-1.3l0.9-1.1l2.1-2.5l1.2-1l0.6-1.1l-0.3,0.7l0,1.1l0.2-0.7l0.1-2.1l1.2-1.8l1-1.3
			l1.1-2l1.1-0.6l-0.1-1.5l1.6-1.9l2.1-1.5l0.3-1.4l0.8-3l2.5-3l1.3-1.1l0.8-0.3l2.7,0.2l1.6-1l1.1-0.7l1.2,1.4l0.2,0.3l2.2-0.8
			l2,0.4l0.2,0.3l-0.7,0.6l-0.1,1.6l-1,1.7l-1.2,1.3H947l-1.4,0.1l1.2,0.9l0.4,1.1l-1.9,2.2l-0.3,1.3l0.2,1.3l1.3,1.3l2.3-0.1
			l1.2-0.5l2.7-0.4l1.6-0.1l0.1,0.5l1.9,0.8h1.9l2.3-0.5l0.7-0.7l0.2-0.2l1.2-0.9L962,252l-0.6-1.2l0.6-1.1l-1.4-0.4l1-0.7l-0.4-1.1
			l0.5-1.3l-0.1,0.1l-0.7-1.4l-0.3-2.1l-0.7-0.3l1.1-1.6l-0.3-0.9l-0.7-0.5l-1-0.1l0.4-1.5l-0.4-1.5l-1.3-1.8l1-1.7l0.6-0.4h1.5
			l0.8-0.2l2.8-0.1l1.7,0.6l2.2-1.4l0.7,0.1l-0.2-0.8l-0.9,0.4l-1.7-0.2l-2.8,0.8l-0.7,0.2l-1.9,0.1l-0.6-0.4l-2.4,0.2l0.3-0.6h-1
			l-2,0.4l-2.1,0.4l-0.9,0.7l-2.2-0.9l-1.9,0.7l-1-0.5l-1.6-0.1l-1.5,1l-0.9,0.2l0.6,0.4h0.5h1.4l0.8-0.3l1.6,0.8l3.4-0.6l1.7-0.2
			l1-0.2l1.5,0.1l-1.5,1.8l-0.6,0.8l-1,2.9l-1.2,0.6l-2,0.6l-1.6-0.4l-1.5,0.4l-0.3-0.1l-1.2-0.3h-2.5l-2.1,0.8l-0.9-0.4l0.2-1.4
			l0.2-1.7l0.7-1.2l1.7-2.2l1-0.4l-0.7-0.6l0.7-1l0.6-1.7l-0.3-1.4l1.1-0.8l1.6-1.5l0.1-0.5l1.3-0.2l2.5,0.1l1.1-0.3l2.8,0.7
			l1.6-0.6l1.6-0.1h2.2l-1.8,0.4l-2.3-0.4l-1.3-0.3l-1.7,0.1l-2.7,0.3l-1.6-0.3l-1.1-0.1l-0.6-0.6l1.3-0.8l1.4-2.7l1.1-1.3l1.6-1.3
			l-0.7-0.6l0.1-0.1l-0.3-0.6l1.8-1.7l2.5-0.4l1.5-0.7l2.2-0.9l1.9,0.2l0.5,0.1l3.3-1l2.2,0.4l1.7-1.3l1.7,0.5l1.6,0.2l0.1,2.2
			l1.4,3.1l0,0.5l0,2.1l-0.6,2.1h1.4l0.6,0.3l0.4,0.4l0-0.5l-0.9,0.7l-2-0.1l-0.3,0.2l-1.1-0.3l-0.2,1.4l1.2-0.6l1.5,0.6l0.5,0.4
			l1.5,2.3l-0.3,1.7l1,1.4l-1.3,0.1l0.9-0.3l0.4,0.8l-0.3,0.7l0.5,2l-0.9,1.8l1,1l-1.1,1.6l-1.1,0.2l-0.2,0.6l2.6,0.3l0.8,0.7
			l0.4,1.2l-1,1.7l1.3,1l0.3,1.2l-2,1.2l-0.8-0.2l0.9,0.8l1.9,0.2l0.1,0.8l-0.4,2.8l0.4,2.6l-0.5,1.2l-0.4,2.1l2.3,0.1l0,1.6
			l0.3,2.2h-0.2l-0.3,0.1l0.9,1.2l0.8,2.6l0.1,1.9l-0.1,0.3l-2.1-0.7l-1,0.5l-2,0.5l-1.7-0.4l-0.2-0.2l-2.2-0.7l-0.2,0.4l-1.6,0.3
			l-0.7,1.1h0.6l2,0.3l2,0.5l1.4-0.3l2.5,0.2l0.9-0.2l2.2-0.3l-0.4,0.9l1,1.4l-0.9,2.1l0.8,1.1l0.3,1.2l1.1,2.7l0.6,1.7L983.1,279.6
			z M919,278.8l0.5-0.5l-0.5-0.6l-0.1,0.2l0.5,0.3L919,278.8z M920.5,279.5h-0.2l-0.6-0.5l-0.2,0.2L920.5,279.5z M919.7,276.8l0,0.5
			l1.9-0.4l-0.9-0.4L919.7,276.8z M925.5,265.9l-0.2-0.6l-1.5,0.3L925.5,265.9z M925.4,270.6l-0.3-0.6l0,0.4l-0.3-0.1L925.4,270.6z
			 M933.5,269.9l1.2-0.8l-1.1-0.2l-1.4-0.2H932l-1.9-0.5l-0.8,0.4l-0.8,0.2l-0.7,0.3l-0.9,0.3l-1.3,0.9l0.9-0.4l1.9,0.2l1-0.5
			l2.8,0.2L933.5,269.9z M961.9,267.4l-0.3-0.7l-0.8-0.2l-1.9,1.3l-3.5-0.4l-0.7,0.4l-1.6-0.1l-0.3,0.1l-1.9,0.3l-2.6-0.3l-1.7,0.3
			l-1.8-0.1l-1-0.1l-1.2,0.8h-1.8l-1.9-0.5l-0.5,0.1l-2.6,0.1l-0.3,0.9l0.2-0.2l0.7,0.6l1.3,0.3l1.4,0.1l1.7-0.8l2.7-0.3h1.8
			l0.8,0.4l1.8-0.2l3.4-0.5l0.9-0.3l1.1,0.4l1.8-0.5l2.2,0.2l1.7-0.1l0.6-0.5L961.9,267.4z M938.7,248.9l3.2-0.4l0.8-0.3l-0.5,0.7
			l0.4-1.4l-0.9-0.3l-1.1,0.1l-1.1-0.4l-1.9,1.2l-0.3-0.3l-0.4,0.9l0.6,0.5L938.7,248.9z M944,247.5l0.5,0.3L944,247.5l0.7-0.3
			L944,247.5z M945.9,239l-1,0.2l1-0.7l0.3,0.2L945.9,239z M946.2,243.1l-0.1,0.8l0.1,0.9l0.9-0.9L946.2,243.1z M947.7,230l-0.5-0.5
			l-0.7,0.5l0.1,0.1l0.1,0.4l-0.6,0.2l0.9-0.4l0.7,1L947.7,230z M946.2,261.7l1.3-0.6l0.7,0.8l2-0.3l-1.2-0.8l-2.4,0.4L946.2,261.7z
			 M948.6,235.7l0.1,0.4l0-0.4l-1.2,0.7l1.2-0.1l0.1-0.6H948.6z M950.6,228.8l0-0.8l-1.2,0.7L950.6,228.8z M955,260l-0.5,0.3
			l0.6,0.5l-0.9-0.2l2.2-0.1l1.4-0.3l-0.2-0.5l0.1-0.5l-0.5,0.3h-1.5l0.4,0.5l-0.2-0.7l-1.7,0.3L955,260z M958.5,233.7l-0.1,0.6
			l0.5-0.2l0.7-0.5l-0.8,0.7L958.5,233.7z M960.6,266.4l0.6-0.1l0.2-0.4l-0.8,0.3L960.6,266.4z M966.4,260.5l2.5,0.2l2.2-0.6
			l1.4,0.4l0.2-0.1l2.1-0.3l0.8,0.2l1-0.3l1,0.3l0.6-1.1l-1.9,0.1l-0.5-1l-1.4,0.3l-1.5-0.4l-1.7,0.4l-0.5,0.1l-1.1,0.4l-1.8,0.4
			l-0.9-0.9l-1.2,0.7h-1.8l-1.1-0.1l-0.5-0.1l-0.5,1.1l1.2-0.3L966.4,260.5z M964.4,224.6l1-0.3l-0.3-1.2l-1.1,0.5l-0.5-0.1
			l-0.6,0.5l-0.4,0.6l1.5,0.2L964.4,224.6z M964.9,243l-0.7,0.7l0.5,0.8l0.9,0.6l-1,0.4l-0.3,0.3l1.3,0.9l1.5-0.6l1,0.9l1.1-0.2
			l1.4-0.1l-0.5-1.2l-1.9-1.4l-1.6-0.6l-1.3-0.3L964.9,243z M966.3,266.7l0.5,0.4h-0.5l-0.8,0.3l0.4,0.1L966.3,266.7z M966.9,238.8
			l0.3,0.5l1,0.1l0.2-1.3L966.9,238.8z M967.9,266l0.8,0.3l-1.6-0.6l0.3,0.9L967.9,266z M968.1,230.5l0.5-0.4l-0.8,0.3L968.1,230.5z
			 M969.1,265.6l-0.2,0.2l1-0.1h-0.1L969.1,265.6z M973.7,231.2l0.1-0.2l0.7-0.1l-0.1,0.4l-1.1-0.4L973.7,231.2z M979.4,270.5
			l-0.9-0.7L979.4,270.5z M980.9,270.5l-1.7-0.1l-0.1,0.6l0.9,0.4l-0.3,0.2L980.9,270.5z M980.6,280.6l0.5,0.2l-0.1,0.3l-0.8,0.8
			l0.2-0.8L980.6,280.6z M980.7,273.6l-0.4-0.6l0.2,0.3l0.8-0.1L980.7,273.6z"/>
		<path class="st4" d="M1043.2,261.6l0.9-0.7l0.3,0.5l-1.3,2.2l-0.2,0.9l-1.7,1.6l0.2,1.1l-2.1-0.1h-1l-2,0.8h-3.7l-0.5-0.1l-2,0.2
			l-2.6-0.4l-1,0.5l-1-0.2l-0.6,1.1l0.9,0.2l1.5,0.3l2.3-0.4l1.2,0.3l2.3-0.3l2.4,0.1l1.5-0.1l2.8-0.7l-0.5,0.9l-0.8,1.3l-0.8-0.1
			l0.2,1.3l-1.7,1.4l-2.1,1.2l-1.6,0.7l-1.9-0.3l0.3-0.2l-2.3,1l-1.6-0.7l-1.5,0.4l-1.7,0.1h0.5l0,1.4l-0.2-0.1l1.1,0.4l4.4-0.4
			l1-0.6l-0.4,1l-1.5,1.2h-2l-0.8,1.3h-1.4l-2.2,0.6l-0.5,0.6l-2.3,0.9l-3,0.3l-0.4,0.3l-2.1,0.2l-1.3,0.4l-0.6-0.1l-1.3-0.3
			l-2.2,0.5l-1.8,0.1h-1.8l-2.3-0.1l-1.2,0.4l-1.3-0.3l-1.9-0.6l-1.8,0.9l-1.9-0.2l-1.7-0.4l-1.9-0.8l-0.1-1.8l1.3-1.9l0.5-2.3
			l0.4-0.9l0.7-0.2l0.2-0.9l0.5-2.4l0.1-1.2l1.8,0.7l1.3-0.5l2.4,0.1l1.9-0.3l1.8,0.3l3.5-0.3l0.9-2.1l-0.3,0.1l-2.3,0.3l-1.1,0.7
			l-0.9-0.3l-1.5,0.2l-0.9,0.4l-2.2-0.8l-0.6,0.1h-1.4l-1.6-1l-1-0.6l0.7-1.5l0.3-1.8l0.4-1.1l-0.2-1.2l0.5-1.9l0.7-1l-0.6-1.6
			l0.9-0.7l-0.1-0.3l0.4-0.9l-0.5,0.2l0.1-0.6l1.2-1.5l-0.7-1.2l0.2-0.6l0,0.4l0.3-0.5l0.4-1.1l-1.1-0.7l0.7-1.4l0.4-1.9l0.4-2
			l1.4-3.5l-0.1-2.5l0.7-2.2l1.2-1.5l1.3,0.4l2.3-0.1h3.1l0.7-0.6l2.1-0.3l2.6,0.5l0.3,0.9l0,1.1l-0.2,1.7l-1,3.5l-0.4,1.4l0,1.5
			l-1.1,2.4l1.1,2.2l-0.4,1.5l-1,2.8l-0.6,1.3l-0.1,0.7l-0.7,3.3l-0.1,1.6l-0.6,3l1.6,1.8l0.3,0.8l-0.4,0.7l0.7-0.2l1.6,0.7l0.2-0.7
			l1.4-1.1l0.2,0.7l0.1,0.2l1.8-0.6l1.6-0.1l1.6-0.2l0.4-0.5l2.1-0.6l-0.2-0.6l0.8-0.5l1.1,0.5l0.1-0.9l1.7-0.5l2.5-0.2l0.9-0.7
			l0.3,0.1l-0.2-0.6l0.7-0.2l1.5-1.5l0.7-2.1l0.3-0.5l1.5-2.1l-0.3-1.1l1.6-1.6l0.1-2.2l1.1-3.3l0.4-1l-0.2-1.3l-0.7-1.8l1.3-1.9
			l0.3,0.7l-0.9-0.5l0.4-1.1l0.1,0.2l-0.6-1.5l-0.6-2.3l-0.3-1.3l-0.3-1.2l0.2,0.3l1.6-0.9l2.2-0.9l0.2,0.9l0,0.6l1.8-0.3l1.6,0.1
			l1-0.1l2.8-0.4l1.9-0.5l0.9,0.6l2,0.1l-0.5,2.7l0.2,1.8l0,1.5l-1,1.6l1,2.6l-0.9,1.6l-0.3,1.2l-1.4,3.5l0.4,1.8l-0.4,0.8l-0.9,3.2
			l-1,1.3l0,1.7l-2,1.6h-1.5l-0.4-0.2l-0.3-0.4l0.2,0.2l-1.1,0.8l-1.3,0.2h-0.3l0.1-0.8l-0.4,0.7l-0.9-0.4l-1.7,0.3l-1.3-0.5
			l-1.6,0.1l-1.2-0.1l-1.9,0.6l-0.9,0.4l-0.6,1l1,0.5l1.9-0.8l1.1,0.4l1.7-0.1l2.9-0.6l0.9,0.2l-0.3,0.3l0.5-0.4l0.6,0.1l-0.3-0.2
			l0,0.2l1-0.7L1043.2,261.6z M996.3,256.4l0.8,0.7l-0.4-0.1L996.3,256.4z M1037.1,213.6l1.4,0.8l0.2-0.2l3.2,1.1l1,0.3l1.4,1.2
			l-0.8,0.3h-1.9l-1.5-0.3l-2.4,0.1l-2.2,0.4l-2.2,1.2l-0.8,0.3l0.1-0.4h1.2l1.6-0.2l0.8,0.4l1.2-0.5l2.6-0.3h0.9l2.2,0.3l1.4-0.3
			l0.8,0.8l2.5,2l0.3,2.8l0.6,0.7l-1,0.1h-0.9l-0.4-0.1l-2.1,0.2l-1.5-0.1l-1.4,0.6l-0.8-0.1l-2.2,0.3h-1.5l0.7,0.9l0.6,0.5l1.2-0.7
			l2.3-0.2l1.3,0.2h1.9l1.3,0.2l1.6-0.2l1.4-0.3l0.5,0.1l0.4,1.3l-0.2,2.2l0.3,1.7l0,0.7l-1.6,0.1l-1.2,0.2l-1.5-0.4l-2.8,0.6
			l-0.9-0.4l-0.7,0.2l-1.7,0.5l-1.4-0.7l-2.5,0.2l-2.5,0.7l0.2,0.2l-0.6-1l-1.5-0.2l-0.6-0.7l-0.7-1.6l-1.1,0.6l-2.5-0.9l-2.8-0.5
			l-1-0.3l-3.2,0.1l-2.2,0.3l-0.7-0.1l0.5,0.3l-0.8-0.4l-0.7-0.1l0.5,0.7l-1.2-0.2l0,0.6l-0.3,2l-0.5,1.7l-1.5,0.5l-3.3-0.1h-1.1
			l-1.7-0.1l-1.2-0.6l-1,0.2l-1.9,0.4l-1-0.7l0.2-1.1l0.6-2.2l0.3-1.1l0.6-2.4l0-1.2l0-1.2l0.7-1l-0.4-1.5l1.6-1.7l-0.7-2.1l1-1.8
			l1.4-2.3l0.2-0.8l1.7,0.6l1.7,0.1l1-0.5l2.2,0.5h0.8l1.4-0.7l1.3,0.1l3.1-0.3l1.7,0.3l2.4,0.2h1.5l3,0.2l1.5,0.3l1.5-0.1h1.2
			l2.3-0.5L1037.1,213.6z M1003.9,230.2l0.2,0.5l0.3-1.4l-0.9,0.7l-1.1,0.1L1003.9,230.2z M1003.8,229.1l1.1-0.2l-0.5,0.3
			L1003.8,229.1z M1007.2,226.9l0.1,0.4l0.1,0.4l0.2-0.3L1007.2,226.9z M1009.7,226.8l0.2-0.7l-0.8-0.5l-0.2,0.4l0.8-0.6l-0.6,0.3
			l-0.5,1l-0.1,0.2l0.6-0.5l-0.2,0.8L1009.7,226.8z M1009.1,223.1l0.5-0.1l0.1,0.8L1009.1,223.1z M1009.7,222.1h-0.3l0.5,0.3
			l0.2-0.3H1009.7z M1011.1,223.4l-0.2-0.1l-0.2,0.2l-0.7,0.7L1011.1,223.4z M1012.3,221.3l-0.2-0.1l0.2,0.4L1012.3,221.3z
			 M1014.6,229.1l0,0.5l-0.8,0.1l0.7,0.1l-0.2,0.7l1.1-0.7L1014.6,229.1z M1014.4,219.8l0.6-0.1l-0.7-0.3l-0.3,0.1L1014.4,219.8z
			 M1015.7,228.1l0.6,0.2l0.1,0.7l0.4-0.2l-1.4-0.4L1015.7,228.1z M1017.3,218.7l-0.3,0.8h-0.9l0.6-0.1L1017.3,218.7z M1024.5,226.5
			l1.5-0.4l-0.9-0.6l-3-0.2l-1.3,0.4h-2.4l0.4,1.2l0,0.1l1.9-0.4l1.5,0.3L1024.5,226.5z M1031.3,224.8l-0.4,0.1l-1.1,0.1l-1.7,0.7
			l-0.2,0.1l0.5,0.1l1.8,0.2l1-0.2l1.8,0.7l1.9-0.5l1.1-0.7l-0.4,0.2h-1.4l-0.4-0.2l-1.4-0.1L1031.3,224.8z M1030.8,229.3l1.4-1
			l-0.8,0.1l-0.6,0.6L1030.8,229.3z M1036.9,269.3l0.3-0.1l1-0.2L1036.9,269.3z M1038.4,269.9l-1.2,0.6l0.7-0.4L1038.4,269.9z
			 M1038.6,270.3l-0.3-0.1l0.6-0.2L1038.6,270.3z M1038.6,239.2l0.1,1.1l0.4-0.3l-0.3-0.6L1038.6,239.2z M1040.2,263.1l-0.5-0.8
			l0.7,0.8l-0.7,0.1L1040.2,263.1z M1039.8,239.2l2,0.9l0.3-0.4l2.3-0.6l0.9-0.4l-2.2-0.5l-2.4,0.5L1039.8,239.2z M1042,254.9
			l-0.4,0.4l-0.2-0.4H1042z M1045.6,253.3h-2.4l-1.5,0.2l-0.2-0.3l0.6,0.7l0.5-0.2L1045.6,253.3z M1043.3,258.3l-1.3,0.3l1.2-0.7
			L1043.3,258.3z M1043.1,255.5l0.8,0.4l-0.3-0.6l-0.4,0.9L1043.1,255.5L1043.1,255.5z M1044.1,252l-0.5,0.8l1-0.4L1044.1,252z
			 M1044.7,239.9l0.2-0.3l0.6,0.4L1044.7,239.9z M1045.4,240.4l0.5,1.2l-0.2-0.4l0.8-0.1L1045.4,240.4z"/>
	</g>
</g>
<path class="st9" d="M771.8-4.1c-8.1-1.5-12.9-4-12.9-4s-0.6-0.2-1.9-0.8c-2.6-1.1-8.1-3.5-17.3-7.5c-7.8-2.6-11.1-2.5-13.4-2
	c-2.8,0.5-5.5,1.6-7.8,3.2c-2.8,1.9-5.5,3.9-5.5,3.9S727-7.1,736.3,8.3c2.1,2.7,3.6,5.5,5.8,8c8.3,9.2,21,19.5,35,21.9
	c17.2,1.2,46.2,0.4,60.7-4.2c13.2-3.5,16.4-4.6,16.4-4.6s9.9-4,36.3,2.3c0,0-16-10-20.9-22.1c0,0-18.8,11.4-35.6,1
	c0,0,31.1-18.6,41.1-44.9c0,0-40.7-6.6-68.1,3.8c0,0,12.3-11.3,6.5-27.6c0,0-46.3,18.1-54.8,45.6l-1.3,3.5"/>
</svg>
